/* XPM */
static char * CLOAKER_xpm[] = {
"64 64 9 1",
" 	c #392C32",
".	c #563935",
"+	c #000000",
"@	c #212121",
"#	c #616161",
"$	c #66423E",
"%	c #76FF03",
"&	c #9E9E9E",
"*	c #3F2D2B",
"    ...................... +++++++++  ......................    ",
"    ...................... +++++++++  ......................    ",
"    ....................+++@@@@@@@@+++++....................    ",
"    ....................+++@@@@@@@@+++++....................    ",
"......................++@@@####@@@@@@@++++..................$$$$",
"......................++@@@####@@@@@@@++++..................$$$$",
"......................++@@#####@@@@@@@@@++..................$$$$",
"....................++@@###@@@@@@@@@@@@@+++.................$$$$",
"....................++@@###@@@@@@@@@@@@@+++.................$$$$",
"....................++@@@@@@@@@@@@@@++@@+++.................$$$$",
"....................++@@@@@@@@@@@@@@++@@+++.................$$$$",
"....................++++++@@@@@@@+++++@@+++.................$$$$",
"....................++++++@@@@@@@+++++@@+++.................$$$$",
"....................++++++++++++++++++@@+++.................$$$$",
"....................++++%%%++++%%%%+++@@+++.................$$$$",
"....................++++%%%++++%%%%+++@@+++.................$$$$",
"....................++++%%%++++%%%%+++@@+++@@++++...........$$$$",
"....................++++%%%++++%%%%+++@@+++@@++++...........$$$$",
"...................+++@@++++++++++++@@@@++@+++++++..........$$$$",
"...................+++@@++++++++++++@@@@++@+++++++..........$$$$",
".................+++++@@@@@@@@@@@@@@@@++++@+++++++++...$$$$$$$$$",
".................+++++@@@@@@@@@@@@@@@@++++@+++++++++...$$$$$$$$$",
"...............+++++@@++@@@##&&@@@@@@@++++@+++++++++++.$$$$$$$$$",
".............+++++++@@++@@@&&##@@@@@++++++@+++++++++++++$$$$$$$$",
"****$$$$$$$$$+++++++@@++@@@&&##@@@@@++++++@+++++++++++++$$$$****",
"****$$$$$$$$++++++++@@@@++@@@@@@@@@+++++++@@@++++++++++++$$$****",
"****$$$$$$$$++++++++@@@@++@@@@@@@@@+++++++@@@++++++++++++$$$****",
"****$$$$$$++@@@@@+++++@@+++++@@+++++++++++@@@+++++++@@@@@++$****",
"    ******++@@@@@+++++@@+++++@@+++++++++++@@@+++++++@@@@@++*    ",
"    ****++@@@@@@@@@+++@@++++++++++++++++++@++****+@@@@@@@@@++   ",
"    ****++@@@@@@@@@+++@@++++++++++++++++@@@++****+@@@@@@@@@++   ",
"    ****++@@@@@@@@@+++@@++++++++++++++++@@@++****+@@@@@@@@@++   ",
"    ....++@@@@@@@@@+++@@@@++++++++++++++@@+......+#########++   ",
"    ....++@@@@@@@@@+++@@@@++++++++++++++@@+......+#########++   ",
"    ....++@@@@@@@@@+..++@@+++++++++++++++++......+####@@@##++   ",
"    ....++@@@@@@@@@+..++@@+++++++++++++++++......+####@@@##++   ",
"........++++@@@@@++...++++++++++++++++++@@@++.....++####@##++$$$",
"........++@@+++++++.++@@@@@++++++++@@@@@@@@@@++...++++++###++$$$",
"........++@@+++++++.++@@@@@++++++++@@@@@@@@@@++...++++++###++$$$",
"..........++@@@@@++.@@@@@@@@@@@@@@@@@@@@@@@@@@@++.++@@@@@##.$$$$",
"..........++@@@@@++.@@@@@@@@@@@@@@@@@@@@@@@@@@@++.++@@@@@##.$$$$",
"..........+++++++..+++++++++++++++++++++++++++++++..+++++##.$$$$",
"..........+++++++..+++++++++++++++++++++++++++++++..+++++##.$$$$",
"..........+++....++++++++++++$    ....++++++++++++++.....##.$$$$",
"..........+++....++++++++++++$    ....++++++++++++++.....##.$$$$",
"......@@++@@+..++++++++++++++$    ......++++++++++++++...##.$$$$",
"......++@@++@..++++++++++++++$    ......++++++++++#########.$$$$",
"......++@@++@..++++++++++++++$    ......++++++++++#########.$$$$",
"..........@@+..++++++++++++++$    ......++++++++++###########$$$",
"..........@@+..++++++++++++++$    ......++++++++++###########$$$",
"..........++@....++++++++++++$    ......++++++++++++..#####.$$$$",
"..........++@....++++++++++++$    ......++++++++++++..#####.$$$$",
"..........@@+....++++++++++++$    ......++++++++++++...$###$$$$$",
"..........++@..++++++++++++++$    ......++++++++++++++.$###$$$$$",
"..........++@..++++++++++++++$    ......++++++++++++++.$###$$$$$",
".............++++++++++++++$$$    ........++++++++++++++###$$$$$",
"****$$$$$$$$$++++++++++++++***    ****$$$$++++++++++++++###$****",
"****$$$$$$$$$$$$$$$$$$$$$$****    ****$$$$$$$$$$$$$$#########***",
"****$$$$$$$$$$$$$$$$$$$$$$****    ****$$$$$$$$$$$$$$#########***",
"****$$$$$$$$$$$$$$$$$$$$$$****    ****$$$$$$$$$$$$#########$****",
"    **********************            ************##****###*    ",
"    **********************            ************##****###*    ",
"    **********************            ******************###*    ",
"    **********************            ******************###*    "};
