/* XPM */
static char * COIN_xpm[] = {
"64 64 193 2",
"  	c #392C32",
". 	c #563935",
"+ 	c #632903",
"@ 	c #1C0608",
"# 	c #1C0607",
"$ 	c #662703",
"% 	c #C17D12",
"& 	c #995700",
"* 	c #9B5700",
"= 	c #1C0605",
"- 	c #66423E",
"; 	c #652401",
"> 	c #652700",
", 	c #652801",
"' 	c #C67F1E",
") 	c #C38010",
"! 	c #9B5801",
"~ 	c #9D570A",
"{ 	c #1A0608",
"] 	c #1B0709",
"^ 	c #1C0407",
"/ 	c #684030",
"( 	c #C47E12",
"_ 	c #1D0607",
": 	c #1B0707",
"< 	c #985600",
"[ 	c #9A5503",
"} 	c #402827",
"| 	c #1D0509",
"1 	c #652803",
"2 	c #1B0605",
"3 	c #C07B13",
"4 	c #9D5602",
"5 	c #662704",
"6 	c #642A04",
"7 	c #C37D15",
"8 	c #9B5701",
"9 	c #1D0709",
"0 	c #402826",
"a 	c #BD1413",
"b 	c #BF1313",
"c 	c #990100",
"d 	c #9A0201",
"e 	c #7E0805",
"f 	c #523732",
"g 	c #270C0A",
"h 	c #6A2B03",
"i 	c #6F2B08",
"j 	c #B81814",
"k 	c #B91915",
"l 	c #B01717",
"m 	c #8E0403",
"n 	c #8C0609",
"o 	c #2A0A0A",
"p 	c #2B0B0B",
"q 	c #481415",
"r 	c #251114",
"s 	c #250C0F",
"t 	c #513633",
"u 	c #622903",
"v 	c #990103",
"w 	c #4E120F",
"x 	c #1B050B",
"y 	c #652904",
"z 	c #86490F",
"A 	c #C07E14",
"B 	c #C37C12",
"C 	c #C07D13",
"D 	c #652805",
"E 	c #1D0508",
"F 	c #975801",
"G 	c #965700",
"H 	c #975701",
"I 	c #7D4509",
"J 	c #1C0606",
"K 	c #C21115",
"L 	c #C11212",
"M 	c #1A0804",
"N 	c #1E0609",
"O 	c #84490E",
"P 	c #C17D14",
"Q 	c #632A01",
"R 	c #995801",
"S 	c #7A4608",
"T 	c #C21215",
"U 	c #3F2D2B",
"V 	c #622803",
"W 	c #C37F16",
"X 	c #C27C11",
"Y 	c #C17D13",
"Z 	c #980101",
"` 	c #1A0703",
" .	c #642805",
"..	c #C07C11",
"+.	c #642806",
"@.	c #C37F14",
"#.	c #9C5C05",
"$.	c #1A0708",
"%.	c #C11312",
"&.	c #1D0704",
"*.	c #C37E14",
"=.	c #C27F10",
"-.	c #622901",
";.	c #622706",
">.	c #C27B15",
",.	c #C17C11",
"'.	c #1A0705",
").	c #1E040C",
"!.	c #C27F13",
"~.	c #995701",
"{.	c #9A5700",
"].	c #1A0605",
"^.	c #BE150F",
"/.	c #C11213",
"(.	c #1A0807",
"_.	c #1E0509",
":.	c #A46411",
"<.	c #C17D10",
"[.	c #632806",
"}.	c #C37D13",
"|.	c #985801",
"1.	c #1C0709",
"2.	c #9B0008",
"3.	c #622A03",
"4.	c #642904",
"5.	c #C17B12",
"6.	c #C37B13",
"7.	c #C37E16",
"8.	c #C37C11",
"9.	c #1C0602",
"0.	c #1D0609",
"a.	c #1D0707",
"b.	c #1B0708",
"c.	c #632B02",
"d.	c #C27911",
"e.	c #995902",
"f.	c #BD1218",
"g.	c #980102",
"h.	c #BE1216",
"i.	c #1F060A",
"j.	c #C17C14",
"k.	c #B97512",
"l.	c #1E050A",
"m.	c #C37F15",
"n.	c #662A08",
"o.	c #642A03",
"p.	c #C07E13",
"q.	c #1E0608",
"r.	c #C27D10",
"s.	c #C27D14",
"t.	c #BA7612",
"u.	c #9A5801",
"v.	c #200409",
"w.	c #612A01",
"x.	c #682E08",
"y.	c #C38017",
"z.	c #C27F17",
"A.	c #C4821A",
"B.	c #C38018",
"C.	c #8A4C0E",
"D.	c #8B4D0E",
"E.	c #230B0D",
"F.	c #230D0F",
"G.	c #5F3812",
"H.	c #9F6113",
"I.	c #A06113",
"J.	c #C27F16",
"K.	c #C47F18",
"L.	c #9F5E0C",
"M.	c #9B5A07",
"N.	c #6F3D0D",
"O.	c #6F3D07",
"P.	c #452B29",
"Q.	c #442A28",
"R.	c #632904",
"S.	c #C37F17",
"T.	c #642902",
"U.	c #1C0507",
"V.	c #1B0608",
"W.	c #C27E13",
"X.	c #9D5B05",
"Y.	c #9A5802",
"Z.	c #1C0708",
"`.	c #181512",
" +	c #3A2523",
".+	c #181511",
"++	c #171512",
"@+	c #15110E",
"#+	c #632902",
"$+	c #1D0708",
"%+	c #1D0608",
"&+	c #1D080A",
"*+	c #181612",
"        . . . . . . . . . . . . . . . . . . . + + + @ @ @ @ @ @ @ @ @ @ @ # . . . . . . . . . . . . . . . . . . . . . .         ",
"        . . . . . . . . . . . . . . . . . . . + + + @ @ @ @ @ @ @ @ @ @ @ # . . . . . . . . . . . . . . . . . . . . . .         ",
"        . . . . . . . . . . . . . . . . . . . + + + @ @ @ @ @ @ @ @ @ @ @ # . . . . . . . . . . . . . . . . . . . . . .         ",
"        . . . . . . . . . . . . . $ + + + + + % % % % % % & & & & & & & & * @ @ @ @ @ = . . . . . . . . . . . . . . . .         ",
". . . . . . . . . . . . . . . . . $ + + + + + % % % % % % & & & & & & & & * @ @ @ @ @ = . . . . . . . . . . . . . . . . - - - - ",
". . . . . . . . . . . . . . . . . ; > > , > > ' ) ) ) ) ) ! ! ! ! ! ! ! ! ~ { { ] { { ^ . . . . . . . . . . . . . . . . - - - - ",
". . . . . . . . . . . . . . / + + ( % % % % % _ @ @ @ @ @ @ @ @ @ @ @ @ @ : & & < & & [ @ @ } . . . . . . . . . . . . . - - - - ",
". . . . . . . . . . . . . . / + + ( % % % % % _ @ @ @ @ @ @ @ @ @ @ @ @ @ : & & < & & [ @ @ } . . . . . . . . . . . . . - - - - ",
". . . . . . . . . . . . . . / + + ( % % | @ @ 1 + + + + + + + + + + + + + + @ @ 2 & & [ @ @ } . . . . . . . . . . . . . - - - - ",
". . . . . . . . . . . . . . / + + ( % % | @ @ 1 + + + + + + + + + + + + + + @ @ 2 & & [ @ @ } . . . . . . . . . . . . . - - - - ",
". . . . . . . . . . . . . . / + + ( % % | @ @ 1 + + + + + + + + + + + + + + @ @ 2 & & [ @ @ } . . . . . . . . . . . . . - - - - ",
". . . . . . . . . . . . . . . . . $ + + 3 % % _ @ @ @ @ @ @ @ @ @ @ @ @ @ : & & 4 @ @ = . . . . . . . . . . . . . . . . - - - - ",
". . . . . . . . . . . . . . . . . $ + + 3 % % _ @ @ @ @ @ @ @ @ @ @ @ @ @ : & & 4 @ @ = . . . . . . . . . . . . . . . . - - - - ",
". . . . . . . . . . . . . . . . . $ + + 3 % % _ @ @ @ @ @ @ @ @ @ @ @ @ @ : & & 4 @ @ = . . . . . . . . . . . . . . . . - - - - ",
". . . . . . . . . . . . . . . . . $ + + + + + % % % % % % % % % & & & & & * @ @ @ @ @ @ @ @ } . . . . . . . . . . . . . - - - - ",
". . . . . . . . . . . . . . . . . $ + + + + + % % % % % % % % % & & & & & * @ @ @ @ @ @ @ @ } . . . . . . . . . . . . . - - - - ",
". . . . . . . . . . . . . . . . . 5 6 6 6 6 6 7 % % % % % % % % & & & & & 8 @ @ 9 @ @ @ @ @ 0 . . . . . . . . . . . . . - - - - ",
". . . . . . . . . . . . . . / + + a b b b b b + + + @ @ @ @ @ @ @ @ @ @ @ @ c c d c c c c c e @ @ . . . . . . . . . . . - - - - ",
". . . . . . . . . . . . . . / + + a b b b b b + + + @ @ @ @ @ @ @ @ @ @ @ @ c c d c c c c c e @ @ . . . . . . . . . . . - - - - ",
". . . . . . . . . . . . . . f g g h i i i i i j k k l l l l l l m m m m m n o o p o o o o o q l l r s s . . . . . . . . - - - - ",
". . . . . . . . . . . . . . t @ @ u + + + + + b b b b b b b b b c c c c c v @ @ @ @ @ @ @ @ w b b x @ @ . . . - - - - - - - - - ",
". . . . . . . . . . . . . . t @ @ u + + + + + b b b b b b b b b c c c c c v @ @ @ @ @ @ @ @ w b b x @ @ . . . - - - - - - - - - ",
". . . . . . . . . . . . y y z A A B C C % C C D + + + + + + + + 9 9 9 9 9 E F F G F F H F F I J J K L L M N N - - - - - - - - - ",
". . . . . . . . . . . . + + O % % P % % % % % Q + + + + + + + + @ @ @ @ @ : & & < & & R & & S @ @ T b b ] @ @ - - - - - - - - - ",
"U U U U - - - - - - - - + + O % % P % % % % % Q + + + + + + + + @ @ @ @ @ : & & < & & R & & S @ @ T b b ] @ @ - - - - - U U U U ",
"U U U U - - - - - + + V % % W % % P % % | @ @ X % % % % % % % % @ @ @ % % Y & & < & & R & & S @ @ Z c c c c c ` @ @ - - U U U U ",
"U U U U - - - - - + + V % % W % % P % % | @ @ X % % % % % % % % @ @ @ % % Y & & < & & R & & S @ @ Z c c c c c ` @ @ - - U U U U ",
"U U U U - - - - - + + V % % W % % P % % | @ @ X % % % % % % % % @ @ @ % % Y & & < & & R & & S @ @ Z c c c c c ` @ @ - - U U U U ",
"        U U + +  .% % ..% % W % % +.+ + 3 % % % % % % % % % % % % % % @ @ @ % % @.& & R & & #.& & $.@ @ %.b b &.@ @ U U         ",
"        U U + +  .% % ..% % W % % +.+ + 3 % % % % % % % % % % % % % % @ @ @ % % @.& & R & & #.& & $.@ @ %.b b &.@ @ U U         ",
"        U U + +  .% % ..% % *.=.=.-.;.;.>.% % ,.=.=.% % % =.=.=.% % % '.'.).=.=.!.~.~.{.& & #.& & E ].].^././.(._._.U U         ",
"        U U + +  .% % ..% % :.+ + ( % % % % % Q + + % % % + + + % % % % % <.+ + [.% % }.& & #.& & |.& & 1.@ @ 2.c c @ @ @       ",
"        . . + +  .% % ..% % :.+ + ( % % % % % Q + + % % % + + + % % % % % <.+ + [.% % }.& & #.& & |.& & 1.@ @ 2.c c @ @ @       ",
"      3.3.4.5.5.6.% % ..% % 7.5.5.8.% % 9.0.0.a.b.b.0.0.0.b.b.b.c.c.c.% % % 5.5.d.% % }.& & #.& & e.& & 1.@ @ f.b b g.g.g.# # # ",
"      + + + % % % % % ..% % W % % P % % | @ @ @ @ @ @ @ @ @ @ @ + + + % % % % % ..% % }.& & #.& & |.& & 1.@ @ h.b b c c c @ @ @ ",
"      + + + % % % % % ..% % W % % P % % | @ @ @ @ @ @ @ @ @ @ @ + + + % % % % % ..% % }.& & #.& & |.& & 1.@ @ h.b b c c c @ @ @ ",
". . . + + + % % % % % ..% % W % % i.@ @ j.% % _ @ @ % % % @ @ @ % % % + + + % % ..% % Y % % k.& & |.& & & & & l.@ @ @ @ @ @ @ @ ",
". . . + + + % % % % % ..% % W % % i.@ @ j.% % _ @ @ % % % @ @ @ % % % + + + % % ..% % Y % % k.& & |.& & & & & l.@ @ @ @ @ @ @ @ ",
". . . + + + % % % % % ..% % W % % i.@ @ j.% % _ @ @ % % % @ @ @ % % % + + + % % ..% % Y % % k.& & |.& & & & & l.@ @ @ @ @ @ @ @ ",
"+ + + % % % % % % % % ..% % W % % +.+ + 3 % % _ @ @ % % % @ @ @ % % % % % % % % ..% % Y % % k.& & |.& & & & & l.@ @ . . - - - - ",
"+ + + % % % % % % % % ..% % W % % +.+ + 3 % % _ @ @ % % % @ @ @ % % % % % % % % ..% % Y % % k.& & |.& & & & & l.@ @ . . - - - - ",
"+ + + % % % % % % % % ..% % m.% % n.o.o.p.% % q.@ @ r.r.r.@ @ @ % % % % % % % % ..% % s.% % t.& & |.& & u.& & v.@ @ . . - - - - ",
"+ + + % % % % % % % % ..% % W % % P % % w.+ + @ @ @ @ @ @ @ @ @ + + + % % % % % ..% % }.& & #.& & |.& & & & & l.@ @ . . - - - - ",
"+ + + % % % % % % % % ..% % W % % P % % w.+ + @ @ @ @ @ @ @ @ @ + + + % % % % % ..% % }.& & #.& & |.& & & & & l.@ @ . . - - - - ",
"x.x.x.y.y.y.y.y.y.y.y.z.y.y.A.y.y.B.y.y.C.D.D.E.F.F.G.G.G.F.F.F.D.D.D.H.H.I.y.y.J.y.y.K.#.#.L.#.#.M.#.#.N.O.O.P.Q.Q.. . - - - - ",
"+ + + % % % % % % % % ..% % W % % P % % % % % _ @ @ % % % @ @ @ % % % + + + % % ..% % }.& & #.& & |.& & 1.@ @ . . . . . - - - - ",
"+ + + % % % % % % % % ..% % W % % P % % % % % _ @ @ % % % @ @ @ % % % + + + % % ..% % }.& & #.& & |.& & 1.@ @ . . . . . - - - - ",
". . . V V R.% % % % % 3 % % S.% % T.V V 7 % % U.@ @ % % % @ @ @ % % % @ @ V.% % W.& & R & & X.& & Y.& & Z.@ @ `.`.`.. . - - - - ",
". . . + + + % % % % % ..% % W % % +.+ + 3 % % _ @ @ % % % @ @ @ % % % @ @ @ % % @.& & R & & #.& & |.& & 1.@ @ `.`.`.. . - - - - ",
". . . + + + % % % % % ..% % W % % +.+ + 3 % % _ @ @ % % % @ @ @ % % % @ @ @ % % @.& & R & & #.& & |.& & 1.@ @ `.`.`.. . - - - - ",
"`.`.`.+ + + % % % % % ..% % W % % P % % w.+ + @ @ @ @ @ @ @ @ @ @ @ @ % % % % % @.& & R & & #.& & $.@ @ `.`.`.`.`.`.`.`.`.- - - ",
"`.`.`.+ + + % % % % % ..% % W % % P % % w.+ + @ @ @ @ @ @ @ @ @ @ @ @ % % % % % @.& & R & & #.& & $.@ @ `.`.`.`.`.`.`.`.`.- - - ",
"`.`.`.+ + + % % % % % ..% % W % % P % % w.+ + @ @ @ @ @ @ @ @ @ @ @ @ % % % % % @.& & R & & #.& & $.@ @ `.`.`.`.`.`.`.`.`.- - - ",
"`.`.`.`.`.`.+ +  .% % ..% % W % % P % % % % % Q + + % % % + + + % % % % % Y & & < & & R & & S @ @ `.`.`.`.`.`.`.`.`.- - - - - - ",
"`.`.`.`.`.`.+ +  .% % ..% % W % % P % % % % % Q + + % % % + + + % % % % % Y & & < & & R & & S @ @ `.`.`.`.`.`.`.`.`.- - - - - - ",
"`.`.`.`.`.`.+ +  .% % ..% % W % % P % % % % % Q + + % % % + + + % % % % % Y & & < & & R & & S @ @ `.`.`.`.`.`.`.`.`.- - - - - - ",
"U U U `.`.`.`.`.`.+ + + + + O % % P % % % % % % % % % % % % % % & & & & & & & & 4 @ @ @ @ @  +`.`.`.`.`.`.`.`.- - - - - U U U U ",
"U U U `.`.`.`.`.`.+ + + + + O % % P % % % % % % % % % % % % % % & & & & & & & & 4 @ @ @ @ @  +`.`.`.`.`.`.`.`.- - - - - U U U U ",
"U U U U - - `.`..+++++++++++@+T.T.T.T.T.T.T.T.#+T.T.T.T.T.E E E $+$+$+$+$+%+$+$+&+.+.+.+.+.+.+`.`.`.`.`.- - - - - - - - U U U U ",
"U U U U - - `.`.`.`.`.`.`.`.@++ + 6 + + + + + + + + + + + @ @ @ @ @ @ @ @ @ @ @ 2 `.`.`.`.`.`.`.`.`.`.`.- - - - - - - - U U U U ",
"        U U `.`.`.`.`.`.`.`.@++ + 6 + + + + + + + + + + + @ @ @ @ @ @ @ @ @ @ @ 2 `.`.`.`.`.`.`.`.`.`.`.U U U U U U U U         ",
"        U U U U U U U U `.`.`.`.`.`.`.`.`.`.`.`.`.`.`.`.`.`.`.`.`.`.`.`.`.`.`.`.`.`.`.`.`.`.*+U U U U U U U U U U U U U         ",
"        U U U U U U U U `.`.`.`.`.`.`.`.`.`.`.`.`.`.`.`.`.`.`.`.`.`.`.`.`.`.`.`.`.`.`.`.`.`.*+U U U U U U U U U U U U U         ",
"        U U U U U U U U `.`.`.`.`.`.`.`.`.`.`.`.`.`.`.`.`.`.`.`.`.`.`.`.`.`.`.`.`.`.`.`.`.`.*+U U U U U U U U U U U U U         "};
