/* XPM */
static char * EXIT_PLAYER_xpm[] = {
"64 64 356 2",
"  	c #392C32",
". 	c #4C3941",
"+ 	c #2467C1",
"@ 	c #C63838",
"# 	c #000000",
"$ 	c #DCDCDC",
"% 	c #3A2E33",
"& 	c #352F31",
"* 	c #302B2D",
"= 	c #3E3539",
"- 	c #4D3A42",
"; 	c #382B31",
"> 	c #0F0E0F",
", 	c #2A2E30",
"' 	c #2B3132",
") 	c #101010",
"! 	c #141313",
"~ 	c #4B3840",
"{ 	c #3A2E34",
"] 	c #30272B",
"^ 	c #2F262A",
"/ 	c #2D2428",
"( 	c #0E0E0F",
"_ 	c #69787C",
": 	c #6B7A7E",
"< 	c #6C7B80",
"[ 	c #342B2F",
"} 	c #171516",
"| 	c #1F2122",
"1 	c #1F2121",
"2 	c #1E2021",
"3 	c #181B1C",
"4 	c #707F84",
"5 	c #1B1E1F",
"6 	c #191718",
"7 	c #202224",
"8 	c #647275",
"9 	c #667478",
"0 	c #748287",
"a 	c #889498",
"b 	c #212325",
"c 	c #212225",
"d 	c #110F10",
"e 	c #111010",
"f 	c #5E6A6E",
"g 	c #6D7C7E",
"h 	c #849195",
"i 	c #909C9F",
"j 	c #617073",
"k 	c #111011",
"l 	c #352C30",
"m 	c #121111",
"n 	c #0F0F0F",
"o 	c #161A1A",
"p 	c #5F6D71",
"q 	c #8C989B",
"r 	c #353A3B",
"s 	c #0F0D0F",
"t 	c #3C3438",
"u 	c #282326",
"v 	c #211D1F",
"w 	c #1E2324",
"x 	c #495153",
"y 	c #50595C",
"z 	c #728185",
"A 	c #4D5658",
"B 	c #131516",
"C 	c #576367",
"D 	c #3C3337",
"E 	c #1C191A",
"F 	c #373D3E",
"G 	c #393939",
"H 	c #343B3D",
"I 	c #272B2C",
"J 	c #5C6D70",
"K 	c #1D1F20",
"L 	c #1C181A",
"M 	c #392D33",
"N 	c #141717",
"O 	c #7C8B8F",
"P 	c #828D90",
"Q 	c #556062",
"R 	c #050606",
"S 	c #3C4B4E",
"T 	c #0C0D0D",
"U 	c #080A0A",
"V 	c #2F3536",
"W 	c #0E1011",
"X 	c #070808",
"Y 	c #454D4F",
"Z 	c #201D1E",
"` 	c #201D1F",
" .	c #424A4C",
"..	c #020303",
"+.	c #3F4647",
"@.	c #5A6163",
"#.	c #77868A",
"$.	c #313738",
"%.	c #292627",
"&.	c #272224",
"*.	c #151719",
"=.	c #79888C",
"-.	c #090A0B",
";.	c #BDBDBD",
">.	c #191919",
",.	c #6C7275",
"'.	c #0B0C0C",
").	c #212525",
"!.	c #67777A",
"~.	c #332E30",
"{.	c #4A3940",
"].	c #2E2A2C",
"^.	c #161818",
"/.	c #626B6E",
"(.	c #727B7E",
"_.	c #889395",
":.	c #6B7576",
"<.	c #768281",
"[.	c #7F8A8D",
"}.	c #2C282A",
"|.	c #362C31",
"1.	c #3B3337",
"2.	c #0C0B0D",
"3.	c #687072",
"4.	c #0D0E0F",
"5.	c #7D8788",
"6.	c #6F797B",
"7.	c #101212",
"8.	c #0C0B0C",
"9.	c #312C2E",
"0.	c #382C32",
"a.	c #4B3940",
"b.	c #49373F",
"c.	c #322C2F",
"d.	c #2A2A2A",
"e.	c #0D0D0D",
"f.	c #121519",
"g.	c #26292A",
"h.	c #282527",
"i.	c #4A383F",
"j.	c #3A3235",
"k.	c #1A1818",
"l.	c #222628",
"m.	c #151818",
"n.	c #33383A",
"o.	c #201E1E",
"p.	c #372C32",
"q.	c #47353D",
"r.	c #221F20",
"s.	c #3B4345",
"t.	c #31383A",
"u.	c #2C3334",
"v.	c #111111",
"w.	c #372B31",
"x.	c #403439",
"y.	c #3B3035",
"z.	c #181717",
"A.	c #0E0F0F",
"B.	c #394043",
"C.	c #1F1D1E",
"D.	c #35292E",
"E.	c #201E1F",
"F.	c #2D3335",
"G.	c #232829",
"H.	c #5B686C",
"I.	c #171616",
"J.	c #372F33",
"K.	c #1E1C1D",
"L.	c #455659",
"M.	c #2F3638",
"N.	c #262D2E",
"O.	c #1D1D20",
"P.	c #596669",
"Q.	c #1B191A",
"R.	c #1C1B1C",
"S.	c #191D1D",
"T.	c #4582B1",
"U.	c #1C1105",
"V.	c #2D3333",
"W.	c #1A1819",
"X.	c #1B1A1B",
"Y.	c #3A3F40",
"Z.	c #1D2021",
"`.	c #121414",
" +	c #212728",
".+	c #363F41",
"++	c #646D70",
"@+	c #141617",
"#+	c #252A2C",
"$+	c #7D878A",
"%+	c #7B8488",
"&+	c #757D80",
"*+	c #211F20",
"=+	c #151515",
"-+	c #1C1719",
";+	c #201F20",
">+	c #171918",
",+	c #33393C",
"'+	c #60686A",
")+	c #191316",
"!+	c #252123",
"~+	c #151314",
"{+	c #131313",
"]+	c #1E2B2A",
"^+	c #161516",
"/+	c #1C1619",
"(+	c #0B090A",
"_+	c #181718",
":+	c #211E20",
"<+	c #221A1E",
"[+	c #1E171B",
"}+	c #110D0F",
"|+	c #1D1C1D",
"1+	c #191818",
"2+	c #181315",
"3+	c #271E22",
"4+	c #1B1518",
"5+	c #0E0B0C",
"6+	c #1C1C1C",
"7+	c #101815",
"8+	c #121112",
"9+	c #1F1E1F",
"0+	c #2B2126",
"a+	c #2F252A",
"b+	c #251C20",
"c+	c #181316",
"d+	c #1F1E1E",
"e+	c #0A0A0B",
"f+	c #161F1E",
"g+	c #130F11",
"h+	c #21191D",
"i+	c #2F2429",
"j+	c #2D2327",
"k+	c #1F181B",
"l+	c #1D1C1C",
"m+	c #0A0A0A",
"n+	c #171215",
"o+	c #33272C",
"p+	c #32272C",
"q+	c #2C3B3C",
"r+	c #151616",
"s+	c #030303",
"t+	c #161315",
"u+	c #2D2328",
"v+	c #36292F",
"w+	c #2E2328",
"x+	c #120E10",
"y+	c #0E0D0D",
"z+	c #1B1B1B",
"A+	c #110E0F",
"B+	c #181215",
"C+	c #33282D",
"D+	c #2A2025",
"E+	c #1D1619",
"F+	c #100C0E",
"G+	c #141414",
"H+	c #0A0F0E",
"I+	c #7C8B8D",
"J+	c #120E0F",
"K+	c #20191C",
"L+	c #35292F",
"M+	c #372A30",
"N+	c #31262B",
"O+	c #1B1618",
"P+	c #131011",
"Q+	c #090809",
"R+	c #1A1A1A",
"S+	c #0D0C0C",
"T+	c #0F0B0D",
"U+	c #291F24",
"V+	c #33272D",
"W+	c #362A2F",
"X+	c #30252A",
"Y+	c #241C20",
"Z+	c #0B0809",
"`+	c #191819",
" @	c #100D0E",
".@	c #191416",
"+@	c #261E22",
"@@	c #2C2227",
"#@	c #140F11",
"$@	c #0E0A0C",
"%@	c #090909",
"&@	c #060405",
"*@	c #0D0A0B",
"=@	c #251D21",
"-@	c #372B30",
";@	c #1D1518",
">@	c #0F0C0D",
",@	c #131212",
"'@	c #080808",
")@	c #09090A",
"!@	c #55666A",
"~@	c #080607",
"{@	c #2D2227",
"]@	c #100F10",
"^@	c #070707",
"/@	c #090A09",
"(@	c #405154",
"_@	c #161616",
":@	c #060505",
"<@	c #0F0B0C",
"[@	c #1A1316",
"}@	c #261C20",
"|@	c #32262B",
"1@	c #3E2E35",
"2@	c #47353C",
"3@	c #34282E",
"4@	c #3C2D33",
"5@	c #2E2227",
"6@	c #1E171A",
"7@	c #110D0E",
"8@	c #090808",
"9@	c #253636",
"0@	c #080708",
"a@	c #0D0C0D",
"b@	c #2D2226",
"c@	c #382A30",
"d@	c #413138",
"e@	c #45343B",
"f@	c #2F2328",
"g@	c #161113",
"h@	c #060606",
"i@	c #0A0809",
"j@	c #22191D",
"k@	c #302429",
"l@	c #45333B",
"m@	c #49373E",
"n@	c #46353C",
"o@	c #3F2F36",
"p@	c #34272D",
"q@	c #291F23",
"r@	c #151012",
"s@	c #909090",
"t@	c #0D0502",
"u@	c #070607",
"v@	c #0B0A0B",
"w@	c #070606",
"x@	c #171214",
"y@	c #35282D",
"z@	c #32262C",
"A@	c #171717",
"B@	c #060506",
"C@	c #070506",
"D@	c #423239",
"E@	c #48363D",
"F@	c #31252B",
"G@	c #2C2226",
"H@	c #121212",
"I@	c #090708",
"J@	c #4A373F",
"K@	c #030203",
"L@	c #020202",
"M@	c #0C090B",
"N@	c #362A30",
"O@	c #1B1517",
"                                . . . . . . . .       + + + + + + + @ @ . . . . . . . .                                         ",
"                                . . . . . . . .       + + + + + + + @ @ . . . . . . . .                                         ",
"                                . . . . . . . .       + + + + + + + @ @ # # . . . . . .                                         ",
"                                . . . . . . . .       + + + + + + + @ @ # # . . . . . .                                         ",
"                                                      + + + $ $ $ $ $ $ $ $ $ $ . . . .                                         ",
"                                                      + + + $ $ $ $ $ $ $ $ $ $ . . . .                                         ",
"                                        % & * * * * * + + + $ $ $ $ $ $ $ $ $ $ # # = -                                         ",
"                                        ; > , ' ' ' ' @ @ @ ) ) ) ) @ @ ) ) ) ) # # ! ~                                         ",
"                                { ] ] ^ / ( _ : < < : @ @ @ ) ) ) ) @ @ ) ) ) ) # # ( / ^ ] ] {                                 ",
"                            { { [ } | 1 2 3 _ : : < 4 @ @ @ ) ) ) ) @ @ ) ) ) ) # # 5 2 1 | } [ { { {                           ",
"                        { ] [ 6 7 ' 8 9 9 9 : : 4 0 a @ @ @ ) ) ) ) @ @ ) ) ) ) # # 9 9 9 8 , b c } ] ] {                       ",
"                        [ d e 3 f 8 : : g g < : h i i $ $ $ $ $ $ $ $ $ $ $ $ $ # # : g : g 8 j f 3 k d ^                       ",
"                % % l m n o p 8 : 0 q q q < < q i i r $ $ $ $ $ $ $ $ $ $ $ $ $ # # : < : < < : : 8 j , s m t %                 ",
"                t u v w x y : z h a i i i < < i i A B $ $ $ $ $ $ $ $ $ $ $ $ $ # # h h h h 4 < g g : C x w v D                 ",
"              [ E w x C < : 4 a i i i F 0 < h G G G G @ @ @ @ @ @ @ @ @ # # # # # # i q r F f H I ' J < : C K L [ %             ",
"          % M L N x : : : < O i P Q y R 8 S q G G G G @ @ @ @ @ @ @ @ @ # # # # # # q y T U V W # X C : : : Y B Z ^ {           ",
". . . .   D ` w x : < : z P i P  .R ..V +.R A G G G G @ @ @ @ @ @ @ @ @ # # +.@.i i y T ..# # # # X C #.O z : x $.w %.t         ",
". . . . M &.*.A _ : < : =.i a @.-.# # G G G G G G G G ;.;.;.>.>.>.>.G G # # q q i ,.'.)...# # # ..w 8 h i =.: _ !.A *.~.;       ",
". . . {.].^.A : < : < j /.(.@.-.# # # G G G G G G G G ;.;.;.>.>.>.>.G G # # i _.:.U , P w # ..X ).<.i [.(.< : < : :  .}.|.;     ",
". . . 1.2. ._ < < : < Y -.'.-.# # # # G G G G G G G G ;.;.;.>.>.>.>.G G # # i 3.4.T _.i 5...R W 6.i i +.7.x : < : : Y 8.9.0.    ",
". a.b.c. ._ : : < : Y R # # # # # # # G G G G d.d.d.d.;.;.;.e.e.e.e.;.;.G G G G '.q i _.f.f.f.6.i a g.X -.Y ' X X V _ +.2.h.    ",
". i.j.k.Y < : < y l.m.# # # # # # # # G G G G d.d.d.d.;.;.;.e.e.e.e.;.;.G G G G 3.i a , f.f.f.a q +.T '.$.n.4.# # ' < p V o.p.  ",
"a.q.r.$.p : : s.N # # # # # # # # # ..G G G G d.d.d.d.;.;.;.e.e.e.e.;.;.G G G G # # I # f.f.f.# # W U t.t.4.# ..# u.< :  .v.c.w.",
"x.y.z.Y : : A o # # # # # # # # # A.n.G G G G d.d.d.d.;.;.;.e.e.e.e.;.;.G G G G # # # X f.f.f.# # .., B.3 # # A.o x : : Q ' C.D.",
"E.F.H C : y o # # # # # # # # # G G G G G G G d.d.d.d.f.f.f.f.f.f.f.f.f.f.f.f.f.f.f.f.f.f.f.f.f.f.f.f.$.# # T G.y O #.< < H.I.J.",
"C.Q p !.: ' ..# # T 7.# # # # X G G G G G G G d.d.d.d.f.f.f.f.f.f.f.f.f.f.f.f.f.f.f.f.f.f.f.f.f.f.f.f.F # -.5 Q O P : < < f 5 K.",
"K.S L.J : , # # # ).M.# # # X N.G G G G G G G d.d.d.d.f.f.f.f.f.f.f.f.f.f.f.f.f.f.f.f.f.f.f.f.f.f.f.f.# # O.3.i P  .V < < : P.Q.",
"R.S L.J : ' # # # ....# # # S.y G G G d.d.d.d.d.d.d.d.T.T.T.U.U.U.U.U.U.U.U.U.U.T.T.T.T.# # # # # # # # # @.i i Q R V.: < : H.W.",
"X.S L.J : ' ..# # # # # ..5 y U G G G d.d.d.d.d.d.d.d.T.T.T.U.U.U.U.U.U.U.U.U.U.T.T.T.T.# # # # # # # # # i i Y.'...F.: < : H.6 ",
"X.S L.J : P.Z.# # # # # l.Y 5 ..G G G d.d.d.d.d.d.d.d.T.T.T.U.U.U.U.U.U.U.U.U.U.T.T.T.T.# # a q Y.U .. .P i A B '.l.H.: < : H.z.",
"X.S L.J : s.T # # # # # 4.o ..# G G G d.d.d.d.d.d.d.d.T.T.T.U.U.U.U.U.U.U.U.U.U.T.T.T.T.# # q Y.-.U Q P i y `.-.).P.: < < : H.z.",
"X.S L.J A o # # # 3  +# # # # # G G G d.d.d.d.G G G G T.T.T.>.>.>.>.;.;.U.U.U.U.G G G G # # y 7.R +.P i /.Z.4.# o .+A < < : H.z.",
"X.f : : ' # # # o .+l.# # # # 4.G G G d.d.d.d.G G G G T.T.T.>.>.>.>.;.;.U.U.U.U.G G G G # # 7.R +.P i ++K # # # # # u.< < : H.z.",
"X.5.i P u.# # @+t.M.# # # # # `.G G G d.d.d.d.G G G G T.T.T.>.>.>.>.;.;.U.U.U.U.G G G G # # ..#+5.i (., # # # # # '.u.: < : H.z.",
"X.$+i i x w w +.$...# # W S...# G G G G G G G U.U.U.U.;.;.;.>.>.>.>.;.;.G G G G # # # # # # I $+i :.o # # # # # -.7.+.: < 9  .z.",
"X.%+q i =.: !.N...# # ..V y R # G G G G G G G U.U.U.U.;.;.;.>.>.>.>.;.;.G G G G # # # # # # &+i h w # # # # # X U F.: < < P...z.",
"X.S L.z i #., # # # ..V +...# # G G G G G G G U.U.U.U.;.;.;.>.>.>.>.;.;.G G G G # # R # `.i i _.w # # # # # # -.M.: < < < H.X *+",
"X. .x <.i =., # # ..G.s.`.# # # G G G G G G G U.U.U.U.;.;.;.>.>.>.>.;.;.G G G G # # R 4.6.i a Y.X # # # # # ...+H.: < #.O P.=+-+",
";+>+o +.=.q ,+R R G.s.7.# # # m.+...# G G G G d.d.d.d.;.;.;.>.>.>.>.;.;.# # # # # # Q (.h G.l.T R # # # # ..F 8 : : #.q '+o =+)+",
"!+~+{+]+: i P.s.s.B.w # # # W Y., ..# G G G G d.d.d.d.;.;.;.>.>.>.>.;.;.# # # # # # s.q +...R +.x 7.# # # I P.< < 0 a i Q ..^+/+",
")+(+_+W V &+a z <  .# # # W B.N...# # G G G G d.d.d.d.;.;.;.>.>.>.>.;.;.# # # N +.V X s...R  .[.A A.# # N.P._ < z a i 6.I {+:+<+",
"[+}+|+v.-.Y P P z  .# # W ' s.R # # # G G G G d.d.d.d.;.;.;.>.>.>.>.;.;.# # T V x # # # R $.5._.Z.# # m.y : _ z P i [.s.# 1+2+3+",
"3+4+5+6+7+7+Y P a Q l.l. .Q R # # U  +G G G G d.d.d.d.G G G G G G G G G # # M.H ..# # R r i i 3.@+..Z.y : < z a i [.s.# 8+9+4+0+",
"a+b+c+d+e+f+7+@.q h g : : Q R # ..w !.G G G G d.d.d.d.G G G G G G G G G # # x ..# # ..o i i P K # 4.C g : < h i q y ..# 6+g+h+i+",
"D.j+k+g+l+m+f+N.A q P < < Q R ..w !.8 G G G G d.d.d.d.G G G G G G G G G # # ..# # # B i i P Z.# 4.C < < < h i q y # # e+d+n+3+o+",
"; p+3+2+d {+'.w q+y < : < Q -.o C C Z.G G G G d.d.d.d.d.d.d.d.d.d.d.G G G G G G # '.C i _.w U U x !.g P a i q Y r+# s+6+t+k+u+v+",
"  v+w+h+x+y+{+f+f+7.M.P.!.8 C H.: Q U G G G G d.d.d.d.d.d.d.d.d.d.d.G G G G G G T C g i P X -.x _ h q i q q Y T # s+z+A+B+3+p+; ",
"  ; C+D+E+F+G+H+H+# W N.x : : < : j  .G G G G d.d.d.d.d.d.d.d.d.d.d.G G G G G G # # g I+0  . .z h i i i '++.o # # e.e.J+K+u+L+  ",
"    M+N+3+O+P+Q+R+# # # @+t.L._ d.d.d.d.d.d.d.d.d.d.d.# # # # # # # d.d.G G G G # # : : g P P q i q A s.3 # # # {+S+T+4+U+V+;   ",
"      W+X+Y+c+Z+`+{+# # # X ]+x d.d.d.d.d.d.d.d.d.d.d.# # # # # # # d.d.G G G G # # =.=.=.i i i ,.@.r+# # # e.{+8+ @.@+@X+W+    ",
"      ; D.@@K+#@$@`+e.# # # # R d.d.d.d.d.d.d.d.d.d.d.# # f+f+S 9 : d.d.G G G G # # i i q '+'+@.B # # # # e.%@&@*@2+=@X+W+;     ",
"        -@V+0+h+;@>@,@'@)@# # # d.d.d.d.d.d.d.# # # # # # L.L.L.!@!.d.d.G G G G # # P P <.....# # # # )@'@v.~@T+)+Y+i+v+;       ",
"        ; M+V+@@{@E+T+&@]@^@/@s+d.d.d.d.d.d.d.# # # # # # (@(@(@(@(@d.d.G G G G # # # # # # # # s+^@^@_@:@<@[@}@|@1@2@~         ",
"            w.3@4@5@6@7@y+8@^@/@d.d.d.d.d.d.d.# # # o 9@9@9@9@9@9@9@d.d.G G G G # # # # # ..s+s+^@^@0@a@}+6@b@c@d@q.~ .         ",
"              ; e@4@f@h+g@*@y+8@d.d.d.d.d.d.d.# # # X U U U U U U U d.d.G G G G # # s+s+s+^@h@^@0@S+i@}+j@k@4@l@m@~ . .         ",
"                i.n@o@p@q@6@r@*@s@s@s@t@t@t@t@# # # # # # # # # # # s@s@t@t@t@t@# # )@u@^@^@v@w@Z+F+x@k+y@o@2@~ . . . .         ",
"                  ; W+z@@@=@6@g@s@s@s@t@t@t@t@# # {+# # # # # # # # s@s@t@t@t@t@# # A@B@C@i@5+x+B+[+=@@@D@E@~ . . . . .         ",
"                      -@D.F@G@b+s@s@s@t@t@t@t@# # ]@{+H@H@H@H@H@H@H@s@s@t@t@t@t@# # I@5+x+x@E+<+3+G@F@D.J@a.. . . . . .         ",
"                        ; M+3@X+t@t@t@t@t@t@t@t@t@t@t@K@L@L@L@L@L@L@t@t@t@t@t@t@t@t@t@t@<+3+0+i+p+D.M+; a.. . . . . . .         ",
"                            ; M+t@t@t@t@t@t@t@t@t@t@t@M@(+(+(+(+(+(+t@t@t@t@t@t@t@t@t@t@i+p+D.N@; ;     . . . . . . . .         ",
"                                t@t@t@t@t@t@t@t@t@t@t@# # O@O@O@O@O@t@t@t@t@t@t@t@t@t@t@# # ;                                   ",
"                                t@t@t@t@t@t@t@t@t@t@t@# # 0+0+0+0+0+t@t@t@t@t@t@t@t@t@t@# #                                     ",
"                                    # # # # # # # # # # # L+L+L+L+L+L+# # # # # # # # # # #                                     ",
"                                    # # # # # # # # # # #             # # # # # # # # # # #                                     "};
