/* XPM */
static char * EXIT_xpm[] = {
"64 64 359 2",
"  	c #392C32",
". 	c #4C3941",
"+ 	c #3A2E33",
"@ 	c #352F31",
"# 	c #302B2D",
"$ 	c #373033",
"% 	c #3E3539",
"& 	c #4D3A42",
"* 	c #382B31",
"= 	c #0F0E0F",
"- 	c #2A2E30",
"; 	c #2B3132",
"> 	c #141313",
", 	c #4B3840",
"' 	c #3A2E34",
") 	c #30272B",
"! 	c #2F262A",
"~ 	c #2D2428",
"{ 	c #0E0E0F",
"] 	c #69787C",
"^ 	c #6B7A7E",
"/ 	c #6C7B80",
"( 	c #6D7C7E",
"_ 	c #667478",
": 	c #342B2F",
"< 	c #171516",
"[ 	c #1F2122",
"} 	c #1F2121",
"| 	c #1E2021",
"1 	c #181B1C",
"2 	c #707F84",
"3 	c #748287",
"4 	c #6F7E83",
"5 	c #67777A",
"6 	c #1B1E1F",
"7 	c #191718",
"8 	c #202224",
"9 	c #647275",
"0 	c #889498",
"a 	c #909C9F",
"b 	c #79888C",
"c 	c #828D90",
"d 	c #849195",
"e 	c #5B686C",
"f 	c #212325",
"g 	c #212225",
"h 	c #110F10",
"i 	c #111010",
"j 	c #5E6A6E",
"k 	c #7C8B8F",
"l 	c #50595C",
"m 	c #617073",
"n 	c #111011",
"o 	c #352C30",
"p 	c #121111",
"q 	c #0F0F0F",
"r 	c #161A1A",
"s 	c #5F6D71",
"t 	c #8C989B",
"u 	c #353A3B",
"v 	c #121414",
"w 	c #090A0B",
"x 	c #050606",
"y 	c #0E1011",
"z 	c #141717",
"A 	c #0F0D0F",
"B 	c #3C3438",
"C 	c #282326",
"D 	c #211D1F",
"E 	c #1E2324",
"F 	c #495153",
"G 	c #728185",
"H 	c #4D5658",
"I 	c #131516",
"J 	c #0B0C0C",
"K 	c #454D4F",
"L 	c #7B8488",
"M 	c #60686A",
"N 	c #313738",
"O 	c #1D1D20",
"P 	c #232829",
"Q 	c #576367",
"R 	c #000000",
"S 	c #020303",
"T 	c #3C3337",
"U 	c #1C191A",
"V 	c #373D3E",
"W 	c #0C0D0D",
"X 	c #7C8B8D",
"Y 	c #0D0E0F",
"Z 	c #646D70",
"` 	c #343B3D",
" .	c #272B2C",
"..	c #5C6D70",
"+.	c #1D1F20",
"@.	c #1C181A",
"#.	c #392D33",
"$.	c #556062",
"%.	c #3C4B4E",
"&.	c #757D80",
"*.	c #191D1D",
"=.	c #424A4C",
"-.	c #080A0A",
";.	c #2F3536",
">.	c #070808",
",.	c #201D1E",
"'.	c #201D1F",
").	c #3F4647",
"!.	c #3B4345",
"~.	c #363F41",
"{.	c #151616",
"].	c #5A6163",
"^.	c #77868A",
"/.	c #292627",
"(.	c #272224",
"_.	c #151719",
":.	c #0E0F0F",
"<.	c #6C7275",
"[.	c #212525",
"}.	c #332E30",
"|.	c #4A3940",
"1.	c #2E2A2C",
"2.	c #161818",
"3.	c #626B6E",
"4.	c #727B7E",
"5.	c #1B1E1E",
"6.	c #889395",
"7.	c #6B7576",
"8.	c #768281",
"9.	c #7F8A8D",
"0.	c #2C282A",
"a.	c #362C31",
"b.	c #3B3337",
"c.	c #0C0B0D",
"d.	c #353D40",
"e.	c #687072",
"f.	c #7D8788",
"g.	c #6F797B",
"h.	c #101212",
"i.	c #0C0B0C",
"j.	c #312C2E",
"k.	c #382C32",
"l.	c #4B3940",
"m.	c #49373F",
"n.	c #322C2F",
"o.	c #26292A",
"p.	c #282527",
"q.	c #4A383F",
"r.	c #3A3235",
"s.	c #1A1818",
"t.	c #222628",
"u.	c #151818",
"v.	c #394043",
"w.	c #2D3335",
"x.	c #33383A",
"y.	c #201E1E",
"z.	c #372C32",
"A.	c #47353D",
"B.	c #221F20",
"C.	c #3A3F40",
"D.	c #2C3334",
"E.	c #7D878A",
"F.	c #31383A",
"G.	c #111111",
"H.	c #372B31",
"I.	c #403439",
"J.	c #3B3035",
"K.	c #181717",
"L.	c #1D2021",
"M.	c #1F1D1E",
"N.	c #35292E",
"O.	c #201E1F",
"P.	c #141617",
"Q.	c #171616",
"R.	c #372F33",
"S.	c #1E1C1D",
"T.	c #455659",
"U.	c #2F3638",
"V.	c #262D2E",
"W.	c #596669",
"X.	c #1B191A",
"Y.	c #1C1B1C",
"Z.	c #2D3333",
"`.	c #1A1819",
" +	c #1B1A1B",
".+	c #6E7677",
"++	c #212728",
"@+	c #252A2C",
"#+	c #33393C",
"$+	c #211F20",
"%+	c #151515",
"&+	c #1C1719",
"*+	c #201F20",
"=+	c #171918",
"-+	c #191316",
";+	c #252123",
">+	c #151314",
",+	c #131313",
"'+	c #1E2B2A",
")+	c #161516",
"!+	c #1C1619",
"~+	c #0B090A",
"{+	c #181718",
"]+	c #211E20",
"^+	c #221A1E",
"/+	c #1E171B",
"(+	c #110D0F",
"_+	c #1D1C1D",
":+	c #191818",
"<+	c #181315",
"[+	c #271E22",
"}+	c #1B1518",
"|+	c #0E0B0C",
"1+	c #1C1C1C",
"2+	c #101815",
"3+	c #121112",
"4+	c #1F1E1F",
"5+	c #2B2126",
"6+	c #2F252A",
"7+	c #251C20",
"8+	c #181316",
"9+	c #1F1E1E",
"0+	c #0A0A0B",
"a+	c #161F1E",
"b+	c #130F11",
"c+	c #21191D",
"d+	c #2F2429",
"e+	c #2D2327",
"f+	c #1F181B",
"g+	c #1D1C1C",
"h+	c #0A0A0A",
"i+	c #171215",
"j+	c #33272C",
"k+	c #32272C",
"l+	c #2C3B3C",
"m+	c #030303",
"n+	c #161315",
"o+	c #2D2328",
"p+	c #36292F",
"q+	c #2E2328",
"r+	c #120E10",
"s+	c #0E0D0D",
"t+	c #1B1B1B",
"u+	c #110E0F",
"v+	c #181215",
"w+	c #33282D",
"x+	c #2A2025",
"y+	c #1D1619",
"z+	c #100C0E",
"A+	c #141414",
"B+	c #0A0F0E",
"C+	c #0D0D0D",
"D+	c #120E0F",
"E+	c #20191C",
"F+	c #35292F",
"G+	c #372A30",
"H+	c #31262B",
"I+	c #1B1618",
"J+	c #131011",
"K+	c #090809",
"L+	c #1A1A1A",
"M+	c #55666A",
"N+	c #0D0C0C",
"O+	c #0F0B0D",
"P+	c #291F24",
"Q+	c #33272D",
"R+	c #362A2F",
"S+	c #30252A",
"T+	c #241C20",
"U+	c #0B0809",
"V+	c #191819",
"W+	c #100D0E",
"X+	c #191416",
"Y+	c #261E22",
"Z+	c #2C2227",
"`+	c #140F11",
" @	c #0E0A0C",
".@	c #090909",
"+@	c #060405",
"@@	c #0D0A0B",
"#@	c #251D21",
"$@	c #372B30",
"%@	c #1D1518",
"&@	c #0F0C0D",
"*@	c #131212",
"=@	c #080808",
"-@	c #09090A",
";@	c #405154",
">@	c #080607",
",@	c #2D2227",
"'@	c #100F10",
")@	c #070707",
"!@	c #090A09",
"~@	c #161616",
"{@	c #060505",
"]@	c #0F0B0C",
"^@	c #1A1316",
"/@	c #261C20",
"(@	c #32262B",
"_@	c #3E2E35",
":@	c #47353C",
"<@	c #34282E",
"[@	c #3C2D33",
"}@	c #2E2227",
"|@	c #1E171A",
"1@	c #110D0E",
"2@	c #090808",
"3@	c #253636",
"4@	c #080708",
"5@	c #0D0C0D",
"6@	c #2D2226",
"7@	c #382A30",
"8@	c #413138",
"9@	c #45343B",
"0@	c #2F2328",
"a@	c #161113",
"b@	c #060606",
"c@	c #0A0809",
"d@	c #22191D",
"e@	c #302429",
"f@	c #45333B",
"g@	c #49373E",
"h@	c #46353C",
"i@	c #3F2F36",
"j@	c #34272D",
"k@	c #291F23",
"l@	c #151012",
"m@	c #0D0B0C",
"n@	c #080707",
"o@	c #0A0B0B",
"p@	c #070607",
"q@	c #0B0A0B",
"r@	c #070606",
"s@	c #171214",
"t@	c #35282D",
"u@	c #32262C",
"v@	c #070506",
"w@	c #060506",
"x@	c #171717",
"y@	c #0B0F10",
"z@	c #423239",
"A@	c #48363D",
"B@	c #31252B",
"C@	c #2C2226",
"D@	c #090708",
"E@	c #040304",
"F@	c #050405",
"G@	c #121212",
"H@	c #4A373F",
"I@	c #0C090A",
"J@	c #050404",
"K@	c #030203",
"L@	c #020202",
"M@	c #261D21",
"N@	c #0C090B",
"O@	c #362A30",
"P@	c #2A2024",
"Q@	c #241C1F",
"R@	c #1B1517",
"                                . . . . . . . .                         . . . . . . . .                                         ",
"                                . . . . . . . .                         . . . . . . . .                                         ",
"                                . . . . . . . .                         . . . . . . . .                                         ",
"                                . . . . . . . .                         . . . . . . . .                                         ",
"                                                                        . . . . . . . .                                         ",
"                                                                        . . . . . . . .                                         ",
"                                        + @ # # # # # # # # # # # # # # $ $ $ $ $ $ % &                                         ",
"                                        * = - ; ; ; ; ; ; ; ; ; ; ; ; ; ; ; ; ; ; - > ,                                         ",
"                                ' ) ) ! ~ { ] ^ / / ^ ( / / ^ / / ^ / ^ / / / / ^ _ { ~ ! ) ) '                                 ",
"                            ' ' : < [ } | 1 ] ^ ^ / 2 3 / / ^ / / 4 3 2 / ^ / ^ ^ 5 6 | } [ < : ' ' '                           ",
"                        ' ) : 7 8 ; 9 _ _ _ ^ ^ 2 3 0 a b 4 ^ 2 3 c a d / ^ 9 e ^ / _ _ _ 9 - f g < ) ) '                       ",
"                        : h i 1 j 9 ^ ^ ( ( / ^ d a a a a k / k a a a 0 / ^ l ; ^ ( ^ ( ^ ( 9 m j 1 n h !                       ",
"                + + o p q r s 9 ^ 3 t t t / / t a a u v v l t a a l v ; ^ l w x y z ^ / ^ / / ^ ^ 9 m - A p B +                 ",
"                B C D E F l ^ G d 0 a a a / / a a H I J K L a M N O J P Q 6 R S J y d d d d 2 / ( ( ^ Q F E D T                 ",
"              : U E F Q / ^ 2 0 a a a V 3 / d a H I W V X a M 1 R Y R W 6 R R J J Z a t u V j `  .; ../ ^ Q +.@.: +             ",
"          + #.@.z F ^ ^ ^ / k a c $.l x 9 %.t $.6 J P 9 t &.- R *.1 R R R R J r =.a t l W -.;.y R >.Q ^ ^ ^ K I ,.! '           ",
". . . .   T '.E F ^ / ^ G c a c =.x S ;.).x H x R P !.H l - R 6 ~.E R R R {.).].a a l W S R R R R >.Q ^.k G ^ F N E /.B         ",
". . . . #.(._.H ] ^ / ^ b a 0 ].w R R H w R x S v =.*.x x S :.~.; S R R w ).t t a <.J [.S R R R S E 9 d a b ^ ] 5 H _.}.*       ",
". . . |.1.2.H ^ / ^ / m 3.4.].w R R R x R R R *.=.5.S R R :.~.; S R R J ).t a 6.7.-.- c E R S >.[.8.a 9.4./ ^ / ^ ^ =.0.a.*     ",
". . . b.c.=.] / / ^ / K w J w R R R R R R R S Z P S R R S ` d.x R R S - t a a e.Y W 6.a f.S x y g.a a ).h.F ^ / ^ ^ K i.j.k.    ",
". l.m.n.=.] ^ ^ / ^ K x R R R R R R R R R R Z J S R R S H ~.x R R R F t a e.-.>.J t a 6.-.R >.g.a 0 o.>.w K ; >.>.;.] ).c.p.    ",
". q.r.s.K / ^ / l t.u.R R R R R R R R R R R [.S R R S v.w.v R R R V f.a &.[.R [.e.a 0 - S >.l 0 t ).W J N x.Y R R ; / s ;.y.z.  ",
"l.A.B.N s ^ ^ !.z R R R R R R R R R S H x R R R R R C.D.w R R R ` E.a 4.E S [.&.a 0  .R J <.6.0 !.y -.F.F.Y R S R D./ ^ =.G.n.H.",
"I.J.K.K ^ ^ H r R R R R R R R R R :.x.!.x R R R R R ; h.R R R L.Z a g.V R {.].a t F R >.F a t $.h.S - v.1 R R :.r F ^ ^ $.; M.N.",
"O.w.` Q ^ l r R R R R R R R R R Y ` !.S R R S N y R R R R R L.v.K H o.R P.].a f.F R >.F a a ].v S w./ N R R W P l k ^./ / e Q.R.",
"M.$.s 5 ^ ; S R R W h.R R R R >. .).x R R R 6 l 1 R R R R y ~.- S x S W =.a 6.H x S ; a t <.*.x [.9 t V R w 6 $.k c ^ / / j 6 S.",
"S.%.T...^ - R R R [.U.R R R >.V.).x R R R 6 l x R R R R R - - S R R {.=.a d H S S ; a a Z S S P L a &.- R O e.a c =.;./ / ^ W.X.",
"Y.%.T...^ ; R R R S S R R R *.l -.R R R S e.w R R R S R R S S R R S H a a Z x S W a a d x S J 4.a 6.[.S S ].a a $.x Z.^ / ^ e `.",
" +%.T...^ ; S R R R R R S 6 l -.R R R x m w R R R x H L.R R R R S F a a e.x R t.] a c x S J 4.a 6.[.S S ].a a C.J S w.^ / ^ e 7 ",
" +%.T...^ W.L.R R R R R t.K 6 S R R S H t.S R R S v.; w R R R S V E.a 4.+.R R J E  .o.S W .+0 t C.-.S =.c a H I J t.e ^ / ^ e K.",
" +%.T...^ !.W R R R R R Y r S R R z H E S R R S v.; w R R R R V 9.].o.6 R R R R R R R W g.a t C.w -.$.c a l v w [.W.^ / / ^ e K.",
" +%.T...H r R R R 1 ++R R R R R :.~.V S R R S d.~.v R R S E L. .F o.R R R R R R R R >.l a a l h.x ).c a 3.L.Y R r ~.H / / ^ e K.",
" +j ^ ^ ; R R R r ~.t.R R R R Y d.; S R R R d.d.h.R R R - v.6 R R R R R R R R R R x H a t K h.x ).c a Z +.R R R R R D./ / ^ e K.",
" +f.a c D.R R P.F.U.R R R R R v !.x R R R L.H x R R R 1 =.- R R R v y R R R R Y  .;.a a 3.S S @+f.a 4.- R R R R R J D.^ / ^ e K.",
" +E.a a F E E ).N S R R y *.S R R R R S E H x R R R r =.r R R R v v.V.R R R :.F a a t 3.S S  .E.a 7.r R R R R R w h.).^ / _ =.K.",
" +L t a b ^ 5 V.S R R S ;.l x R R R R R s >.R R R x H E R R R S v.#+S R R S ;.a a a c x S Y &.a d E R R R R R >.-.w.^ / / W.S K.",
" +%.T.G a ^.- R R R S ;.).S R R R R R R S R R R x H E R R R S v.` S R R S @+^.a t c x R v a a 6.E R R R R R R w U.^ / / / e >.$+",
" +=.F 8.a b - R R S P !.v R R R S R R R R R R x !.; -.R R S ; d.y R R R 6 s t .+o.t.x Y g.a 0 C.>.R R R R R S ~.e ^ / ^.k W.%+&+",
"*+=+r ).b t #+x x P !.h.R R R u.).S R R R R x l ; -.R R S ; V :.R R S 5.=.!.g.1 S w $.4.d P t.W x R R R R S V 9 ^ ^ ^.t M r %+-+",
";+>+,+'+^ a W.!.!.v.E R R R y C.- S R R R R v.#+y R R S w.v.*.R R R [.v.@+u.;.R x !.!.t ).S x ).F h.R R R  .W./ / 3 0 a $.S )+!+",
"-+~+{+y ;.&.0 G / =.R R R y v.V.S R R R v.).#+S R R S D.` 5.R R R [.v.P S R R z ).;.>.!.S x =.9.H :.R R V.W.] / G 0 a g. .,+]+^+",
"/+(+_+G.w K c c G =.R R y ; !.x R R R [._ H x R R R *.=.u.R R R v v.@+S R R W ;.F R R R x N f.6.L.R R u.l ^ ] G c a 9.!.R :+<+[+",
"[+}+|+1+2+2+K c 0 $.t.t.=.$.x R R -.++5 H x R R R *.).u.R R R I ~.@+R R R J U.` S R R x u a a e.P.S L.l ^ / G 0 a 9.!.R 3+4+}+5+",
"6+7+8+9+0+a+2+].t d ( ^ ^ $.x R S E 5 9 -.R R S >.H L.R R R x v.#+S R R S @+F S R R S r a a c +.R Y Q ( ^ / d a t l S R 1+b+c+d+",
"N.e+f+b+g+h+a+V.H t c / / $.x S E 5 9 >.R R R J H E R R R x v.#+R R R S P F S R R R I a a c L.R Y Q / / / d a t l R R 0+9+i+[+j+",
"* k+[+<+h ,+J E l+l / ^ / $.w r Q Q L.S R R x l - -.R R x D.d.Y R R S L.=.v R R R J Q a 6.E -.-.F 5 ( c 0 a t K {.R m+1+n+f+o+p+",
"  p+q+c+r+s+,+a+a+h.U.W.5 9 Q e ^ $.-.R R x $.6 >.R R x ).d.Y R R S N K I R R S W Q ( a c >.w F ] d t a t t K W R m+t+u+v+[+k+* ",
"  * w+x+y+z+A+B+B+R y V.F ^ ^ / ^ m =.x S ).] x R R R ;.#+*.R R R t.Q H S R R u.=./ ( X 3 =.=.G d a a a M ).r R R C+C+D+E+o+F+  ",
"    G+H+[+I+J+K+L+R R R P.F.T.] _ M+M+=.=.5 ] x R R N s L.R R R t.$.^ H R R u.l ^ ^ ^ ^ ( c c t a t H !.1 R R R ,+N+O+}+P+Q+*   ",
"      R+S+T+8+U+V+,+R R R >.'+F l %.T...s ....-  .V.W.^ E R R u.H ^ / Q V. .!./ / b b b b a a a <.].{.R R R C+,+3+W+X+Y+S+R+    ",
"      * N.Z+E+`+ @V+C+R R R R x a+'+%.%.l+T.T.....s s s D.a+a+%._ ^ / 4 ^.^.b ^.b a a a t M M ].I R R R R C+.@+@@@<+#@S+R+*     ",
"        $@Q+5+c+%@&@*@=@-@R R R R -.'+'+x ;@;@;@;@;@;@T.T.T.T.T.M+5 5 G a a a a a c c c 8.S S R R R R -@=@G.>@O+-+T+d+p+*       ",
"        * G+Q+Z+,@y+O++@'@)@!@m+R R R R R '+'+'+J S x d.;@;@;@;@;@;@;@$.c c c c L S R R R R R R m+)@)@~@{@]@^@/@(@_@:@,         ",
"            H.<@[@}@|@1@s+2@)@!@m+R R R R -.-.-.S R r 3@3@3@3@3@3@3@3@V.L.+.L.L.6 R R R R S m+m+)@)@4@5@(+|@6@7@8@A., .         ",
"              * 9@[@0@c+a@@@s+2@)@)@m+m+m+R R R R R >.-.-.-.-.-.-.-.-.-.S R R R R R m+m+m+)@b@)@4@N+c@(+d@e@[@f@g@, . .         ",
"                q.h@i@j@k@|@l@@@m@n@)@b@o@R R R R R R R R R R R R R R -.2+R R R R R -@p@)@)@q@r@U+z+s@f+t@i@:@, . . . .         ",
"                  * R+u@Z+#@|@a@z+c@v@w@x@~@%+%+%+,+R R R R R R R R R x y@,+%+%+%+~@x@w@v@c@|+r+v+/+#@Z+z@A@, . . . . .         ",
"                      $@N.B@C@7+|@i+r+|+D@{@E@E@F@'@,+G@G@G@G@G@G@G@G@G@,+'@F@E@E@{@D@|+r+s@y+^+[+C@B@N.H@l.. . . . . .         ",
"                        * G+<@S+C@[+^+!+a@D+&@|+I@c@J@K@L@L@L@L@L@L@L@K@J@>@I@|+&@D+a@!+^+[+5+d+k+N.G+* l.. . . . . . .         ",
"                            * G+N.k+d+5+M@^+E+/+}+l@&@N@~+~+~+~+~+~+~+N@&@l@}+/+E+^+M@5+d+k+N.O@* *     . . . . . . . .         ",
"                                * * G+N.u@S+d+o+P@Q@/+}+R@R@R@R@R@R@R@}+/+Q@x+o+d+S+u@N.G+* *                                   ",
"                                      * * $@G+R+<@B@o+C@5+5+5+5+5+5+5+C@o+B@<@R+G+$@* *                                         ",
"                                                * G+R+F+F+F+F+F+F+F+F+F+R+G+*                                                   ",
"                                                                                                                                "};
