/* XPM */
static char * EXIT_PLAYER_UP_DOWN_xpm[] = {
"64 64 358 2",
"  	c #392C32",
". 	c #4C3941",
"+ 	c #2467C1",
"@ 	c #C63838",
"# 	c #000000",
"$ 	c #DCDCDC",
"% 	c #3A2E33",
"& 	c #352F31",
"* 	c #302B2D",
"= 	c #373033",
"- 	c #3E3539",
"; 	c #4D3A42",
"> 	c #382B31",
", 	c #0F0E0F",
"' 	c #2A2E30",
") 	c #141313",
"! 	c #4B3840",
"~ 	c #3A2E34",
"{ 	c #30272B",
"] 	c #2F262A",
"^ 	c #2D2428",
"/ 	c #0E0E0F",
"( 	c #69787C",
"_ 	c #101010",
": 	c #667478",
"< 	c #121519",
"[ 	c #342B2F",
"} 	c #171516",
"| 	c #1F2122",
"1 	c #1F2121",
"2 	c #1E2021",
"3 	c #181B1C",
"4 	c #67777A",
"5 	c #1B1E1F",
"6 	c #191718",
"7 	c #202224",
"8 	c #2B3132",
"9 	c #647275",
"0 	c #6B7A7E",
"a 	c #6C7B80",
"b 	c #110F10",
"c 	c #111010",
"d 	c #5E6A6E",
"e 	c #393939",
"f 	c #352C30",
"g 	c #121111",
"h 	c #0F0F0F",
"i 	c #161A1A",
"j 	c #5F6D71",
"k 	c #748287",
"l 	c #8C989B",
"m 	c #3C3438",
"n 	c #282326",
"o 	c #211D1F",
"p 	c #1E2324",
"q 	c #495153",
"r 	c #50595C",
"s 	c #728185",
"t 	c #849195",
"u 	c #889498",
"v 	c #909C9F",
"w 	c #1C191A",
"x 	c #576367",
"y 	c #707F84",
"z 	c #373D3E",
"A 	c #392D33",
"B 	c #1C181A",
"C 	c #141717",
"D 	c #7C8B8F",
"E 	c #2A2A2A",
"F 	c #4582B1",
"G 	c #1C1105",
"H 	c #201D1E",
"I 	c #3C3337",
"J 	c #201D1F",
"K 	c #828D90",
"L 	c #313738",
"M 	c #292627",
"N 	c #272224",
"O 	c #151719",
"P 	c #4D5658",
"Q 	c #79888C",
"R 	c #5A6163",
"S 	c #020303",
"T 	c #332E30",
"U 	c #4A3940",
"V 	c #2E2A2C",
"W 	c #161818",
"X 	c #617073",
"Y 	c #626B6E",
"Z 	c #727B7E",
"` 	c #090A0B",
" .	c #212525",
"..	c #768281",
"+.	c #7F8A8D",
"@.	c #424A4C",
"#.	c #2C282A",
"$.	c #362C31",
"%.	c #3B3337",
"&.	c #0C0B0D",
"*.	c #454D4F",
"=.	c #0B0C0C",
"-.	c #BDBDBD",
";.	c #6F797B",
">.	c #3F4647",
",.	c #101212",
"'.	c #0C0B0C",
").	c #312C2E",
"!.	c #382C32",
"~.	c #4B3940",
"{.	c #49373F",
"].	c #322C2F",
"^.	c #050606",
"/.	c #26292A",
"(.	c #070808",
"_.	c #2F3536",
":.	c #282527",
"<.	c #4A383F",
"[.	c #3A3235",
"}.	c #1A1818",
"|.	c #222628",
"1.	c #151818",
"2.	c #0C0D0D",
"3.	c #33383A",
"4.	c #0D0E0F",
"5.	c #201E1E",
"6.	c #372C32",
"7.	c #47353D",
"8.	c #221F20",
"9.	c #3B4345",
"0.	c #0E1011",
"a.	c #080A0A",
"b.	c #31383A",
"c.	c #2C3334",
"d.	c #111111",
"e.	c #372B31",
"f.	c #403439",
"g.	c #3B3035",
"h.	c #181717",
"i.	c #191919",
"j.	c #394043",
"k.	c #0E0F0F",
"l.	c #556062",
"m.	c #1F1D1E",
"n.	c #35292E",
"o.	c #201E1F",
"p.	c #2D3335",
"q.	c #343B3D",
"r.	c #232829",
"s.	c #77868A",
"t.	c #5B686C",
"u.	c #171616",
"v.	c #372F33",
"w.	c #6C7275",
"x.	c #191D1D",
"y.	c #1E1C1D",
"z.	c #3C4B4E",
"A.	c #455659",
"B.	c #5C6D70",
"C.	c #2F3638",
"D.	c #262D2E",
"E.	c #646D70",
"F.	c #7B8488",
"G.	c #757D80",
"H.	c #1D1D20",
"I.	c #687072",
"J.	c #596669",
"K.	c #1B191A",
"L.	c #1C1B1C",
"M.	c #889395",
"N.	c #2D3333",
"O.	c #1A1819",
"P.	c #1B1A1B",
"Q.	c #3A3F40",
"R.	c #1D2021",
"S.	c #272B2C",
"T.	c #6E7677",
"U.	c #131516",
"V.	c #121414",
"W.	c #212728",
"X.	c #363F41",
"Y.	c #1D1F20",
"Z.	c #7D8788",
"`.	c #141617",
" +	c #252A2C",
".+	c #7D878A",
"++	c #6B7576",
"@+	c #211F20",
"#+	c #151515",
"$+	c #1C1719",
"%+	c #201F20",
"&+	c #171918",
"*+	c #33393C",
"=+	c #60686A",
"-+	c #191316",
";+	c #252123",
">+	c #151314",
",+	c #131313",
"'+	c #1E2B2A",
")+	c #161516",
"!+	c #1C1619",
"~+	c #0B090A",
"{+	c #181718",
"]+	c #211E20",
"^+	c #221A1E",
"/+	c #1E171B",
"(+	c #110D0F",
"_+	c #1D1C1D",
":+	c #191818",
"<+	c #181315",
"[+	c #271E22",
"}+	c #1B1518",
"|+	c #0E0B0C",
"1+	c #1C1C1C",
"2+	c #101815",
"3+	c #353A3B",
"4+	c #121112",
"5+	c #1F1E1F",
"6+	c #2B2126",
"7+	c #2F252A",
"8+	c #251C20",
"9+	c #181316",
"0+	c #1F1E1E",
"a+	c #0A0A0B",
"b+	c #161F1E",
"c+	c #6D7C7E",
"d+	c #130F11",
"e+	c #21191D",
"f+	c #2F2429",
"g+	c #2D2327",
"h+	c #1F181B",
"i+	c #1D1C1C",
"j+	c #0A0A0A",
"k+	c #171215",
"l+	c #33272C",
"m+	c #32272C",
"n+	c #2C3B3C",
"o+	c #151616",
"p+	c #030303",
"q+	c #161315",
"r+	c #2D2328",
"s+	c #36292F",
"t+	c #2E2328",
"u+	c #120E10",
"v+	c #0E0D0D",
"w+	c #1B1B1B",
"x+	c #110E0F",
"y+	c #181215",
"z+	c #33282D",
"A+	c #2A2025",
"B+	c #1D1619",
"C+	c #100C0E",
"D+	c #141414",
"E+	c #0A0F0E",
"F+	c #7C8B8D",
"G+	c #0D0D0D",
"H+	c #120E0F",
"I+	c #20191C",
"J+	c #35292F",
"K+	c #372A30",
"L+	c #31262B",
"M+	c #1B1618",
"N+	c #131011",
"O+	c #090809",
"P+	c #1A1A1A",
"Q+	c #0D0C0C",
"R+	c #0F0B0D",
"S+	c #291F24",
"T+	c #33272D",
"U+	c #362A2F",
"V+	c #30252A",
"W+	c #241C20",
"X+	c #0B0809",
"Y+	c #191819",
"Z+	c #100D0E",
"`+	c #191416",
" @	c #261E22",
".@	c #2C2227",
"+@	c #140F11",
"@@	c #0E0A0C",
"#@	c #090909",
"$@	c #060405",
"%@	c #0D0A0B",
"&@	c #251D21",
"*@	c #372B30",
"=@	c #1D1518",
"-@	c #0F0C0D",
";@	c #131212",
">@	c #080808",
",@	c #405154",
"'@	c #09090A",
")@	c #080607",
"!@	c #2D2227",
"~@	c #353D40",
"{@	c #070707",
"]@	c #161616",
"^@	c #060505",
"/@	c #0F0B0C",
"(@	c #1A1316",
"_@	c #261C20",
":@	c #32262B",
"<@	c #3E2E35",
"[@	c #47353C",
"}@	c #34282E",
"|@	c #3C2D33",
"1@	c #2E2227",
"2@	c #1E171A",
"3@	c #110D0E",
"4@	c #253636",
"5@	c #080708",
"6@	c #0D0C0D",
"7@	c #2D2226",
"8@	c #382A30",
"9@	c #413138",
"0@	c #45343B",
"a@	c #2F2328",
"b@	c #060606",
"c@	c #0A0809",
"d@	c #22191D",
"e@	c #302429",
"f@	c #45333B",
"g@	c #49373E",
"h@	c #46353C",
"i@	c #3F2F36",
"j@	c #34272D",
"k@	c #070607",
"l@	c #0B0A0B",
"m@	c #070606",
"n@	c #171214",
"o@	c #35282D",
"p@	c #32262C",
"q@	c #909090",
"r@	c #0D0502",
"s@	c #171717",
"t@	c #060506",
"u@	c #070506",
"v@	c #423239",
"w@	c #48363D",
"x@	c #040304",
"y@	c #050405",
"z@	c #100F10",
"A@	c #121212",
"B@	c #090708",
"C@	c #2C2226",
"D@	c #31252B",
"E@	c #4A373F",
"F@	c #0C090A",
"G@	c #050404",
"H@	c #030203",
"I@	c #020202",
"J@	c #161113",
"K@	c #151012",
"L@	c #0C090B",
"M@	c #261D21",
"N@	c #362A30",
"O@	c #2A2024",
"P@	c #241C1F",
"Q@	c #1B1517",
"                                . . . . . . . + + + + + + + + @ @ @ @   . . . . . . . .                                         ",
"                                . . . . . . . + + + + + + + + @ @ @ @   . . . . . . . .                                         ",
"                                . . . . . . . + + + + + + + + @ @ @ @ # # . . . . . . .                                         ",
"                                . . . . . . . + + + + + + + + @ @ @ @ # # . . . . . . .                                         ",
"                                              + + + + $ $ $ $ $ $ $ $ $ $ $ $ . . . . .                                         ",
"                                              + + + + $ $ $ $ $ $ $ $ $ $ $ $ . . . . .                                         ",
"                                        % & * + + + + $ $ $ $ $ $ $ $ $ $ $ $ # # = - ;                                         ",
"                                        > , ' + + + + $ $ $ $ $ $ $ $ $ $ $ $ # # ' ) !                                         ",
"                                ~ { { ] ^ / ( @ @ @ @ _ _ _ _ @ @ @ @ _ _ _ _ # # : / ^ ] { < < < <                             ",
"                            ~ ~ [ } | 1 2 3 ( @ @ @ @ _ _ _ _ @ @ @ @ _ _ _ _ # # 4 5 2 1 | < < < < ~                           ",
"                        ~ { [ 6 7 8 9 : : : 0 @ @ @ @ _ _ _ _ @ @ @ @ _ _ _ _ # # a : : : 9 < < < < # # ~                       ",
"                        [ b c 3 d 9 0 0 e e e $ $ $ $ $ $ $ $ < < < < < < < < < < < < < < < < < < < < < < <                     ",
"                % % f g h i j 9 0 k l l e e e $ $ $ $ $ $ $ $ < < < < < < < < < < < < < < < < < < < < < < < m %                 ",
"                m n o p q r 0 s t u v v e e e $ $ $ $ $ $ $ $ < < < < < < < < < < < < < < < < < < < < < < < # #                 ",
"              [ w p q x a 0 y u v v v z e e e $ $ $ $ $ $ $ $ < < < < < < < < < < < < < < < < < < < < < < < # # [ %             ",
"          % A B C q 0 0 0 a D v e e e e e e e E E E E F F F F G G G G G G G G G G G F F F F # # # # # # # # # # H ] ~           ",
". . . .   I J p q 0 a 0 s K v K e e e e e e e E E E E F F F F G G G G G G G G G G G F F F F # # # # # # # # # # L p M m         ",
". . . . A N O P ( 0 a 0 Q v u R e e e e e e e E E E E F F F F G G G G G G G G G G G F F F F # # S p 9 t v Q 0 ( 4 P O T >       ",
". . . U V W P 0 a 0 a X Y Z R ` e e e e e e e E E E E F F F F G G G G G G G G G G G F F F F # #  ...v +.Z a 0 a 0 0 @.#.$.>     ",
". . . %.&.@.( a a 0 a *.` =.` # e e e e E E E e e e e F F F F -.-.-.-.e e e e G G G e e e e # # ;.v v >.,.q 0 a 0 0 *.'.).!.    ",
". ~.{.].@.( 0 0 a 0 *.^.# # # # e e e e E E E e e e e F F F F -.-.-.-.e e e e G G G e e e e # # v u /.(.` *.8 (.(._.( >.&.:.    ",
". <.[.}.*.a 0 a r |.1.# # # # # e e e e E E E e e e e F F F F -.-.-.-.e e e e G G G e e e e # # l >.2.=.L 3.4.# # 8 a j _.5.6.  ",
"~.7.8.L j 0 0 9.C # # # # # # # e e e e E E E e e e e F F F F -.-.-.-.e e e e G G G e e e e # # 9.0.a.b.b.4.# S # c.a 0 @.d.].e.",
"f.g.h.*.0 0 P i # # # # # # # # e e e e e e e G G G G i.i.i.i.-.-.-.-.e e e e e e e # # # # # # ,.S ' j.3 # # k.i q 0 0 l.8 m.n.",
"o.p.q.x 0 r i # # # # # # # # # e e e e e e e G G G G i.i.i.i.-.-.-.-.e e e e e e e # # # # # # S p.a L # # 2.r.r D s.a a t.u.v.",
"m.l.j 4 0 8 S # # 2.,.# # # # (.e e e e e e e G G G G i.i.i.i.-.-.-.-.e e e e e e e # # l w.x.^. .9 l z # ` 5 l.D K 0 a a d 5 y.",
"y.z.A.B.0 ' # # #  .C.# # # (.D.>.^.# # e e e -.-.-.-.i.i.i.i.-.-.-.-.e e e e # # # # # E.S S r.F.v G.' # H.I.v K @._.a a 0 J.K.",
"L.z.A.B.0 8 # # # S S # # # x.r a.# # # e e e -.-.-.-.i.i.i.i.-.-.-.-.e e e e # # # # # ^.S =.Z v M. .S S R v v l.^.N.0 a 0 t.O.",
"P.z.A.B.0 8 S # # # # # S 5 r a.# # # ^.e e e -.-.-.-.i.i.i.i.-.-.-.-.e e e e # # v K ^.S =.Z v M. .S S R v v Q.=.S p.0 a 0 t.6 ",
"P.z.A.B.0 J.R.# # # # # |.*.5 S # # S P e e e -.-.-.-.i.i.i.i.-.-.-.-.e e e e # # S./.S 2.T.u l Q.a.S @.K v P U.=.|.t.0 a 0 t.h.",
"P.z.A.B.0 9.2.# # # # # 4.i S # e e e e e e e -.-.-.-.i.i.i.i.-.-.-.-.e e e e # # # # 2.;.v l Q.` a.l.K v r V.`  .J.0 a a 0 t.h.",
"P.z.A.B.P i # # # 3 W.# # # # # e e e e e e e -.-.-.-.i.i.i.i.-.-.-.-.e e e e # # # (.r v v r ,.^.>.K v Y R.4.# i X.P a a 0 t.h.",
"P.d 0 0 8 # # # i X.|.# # # # 4.e e e e e e e -.-.-.-.i.i.i.i.-.-.-.-.e e e e # # ^.P v l *.,.^.>.K v E.Y.# # # # # c.a a 0 t.h.",
"P.Z.v K c.# # `.b.C.# # # # # V.e e e e e e e -.-.-.-.i.i.i.i.-.-.-.-.e e e e # # _.v v Y S S  +Z.v Z ' # # # # # =.c.0 a 0 t.h.",
"P..+v v q p p >.L S # # 0.x.S # e e e e E E E -.-.-.-.i.i.i.i.-.-.-.-.e e e e # # v l Y S S S..+v ++i # # # # # ` ,.>.0 a : @.h.",
"P.F.l v Q 0 4 D.S # # S _.r ^.# e e e e E E E -.-.-.-.i.i.i.i.-.-.-.-.e e e e # # v K ^.S 4.G.v t p # # # # # (.a.p.0 a a J.S h.",
"P.z.A.s v s.' # # # S _.>.S # # e e e e E E E -.-.-.-.i.i.i.i.-.-.-.-.e e e e # # K ^.# V.v v M.p # # # # # # ` C.0 a a a t.(.@+",
"P.@.q ..v Q ' # # S r.9.V.# # # e e e e E E E -.-.-.-.i.i.i.i.-.-.-.-.e e e e # # |.^.4.;.v u Q.(.# # # # # S X.t.0 a s.D J.#+$+",
"%+&+i >.Q l *+^.^.r.9.,.e e e e E E E E E E E -.-.-.-.i.i.i.i.-.-.-.-.# # # # # # ` l.Z t r.|.2.^.# # # # S z 9 0 0 s.l =+i #+-+",
";+>+,+'+0 v J.9.9.j.p # e e e e E E E E E E E -.-.-.-.i.i.i.i.-.-.-.-.# # # # # # 9.9.l >.S ^.>.q ,.# # # S.J.a a k u v l.S )+!+",
"-+~+{+0._.G.u s a @.# # e e e e E E E E E E E -.-.-.-.i.i.i.i.-.-.-.-.# # # # C >._.(.9.S ^.@.+.P k.# # D.J.( a s u v ;.S.,+]+^+",
"/+(+_+d.` *.K K s @.# # 0.8 # # e e e e E E E e e e e e e e e e e e e # # # 2._.q # # # ^.L Z.M.R.# # 1.r 0 ( s K v +.9.# :+<+[+",
"[+}+|+1+2+2+*.K u l.|.|.@.l.# # e e e e E E E e e e e e e e e e e e e # # =.C.q.S # # ^.3+v v I.`.S R.r 0 a s u v +.9.# 4+5+}+6+",
"7+8+9+0+a+b+2+R l t c+0 0 l.^.# e e e e E E E e e e e e e e e e e e e # #  +q S # # S i v v K Y.# 4.x c+0 a t v l r S # 1+d+e+f+",
"n.g+h+d+i+j+b+D.P l K a a l.^.S e e e e E E E e e e e e e e e e e e e # # q S # # # U.v v K R.# 4.x a a a t v l r # # a+0+k+[+l+",
"> m+[+<+b ,+=.p n+r a 0 a l.` i e e e e E E E E E E E E E E E e e e e e e e e # # =.x v M.p a.a.q 4 c+K u v l *.o+# p+1+q+h+r+s+",
"  s+t+e+u+v+,+b+b+,.C.J.4 9 x t.e e e e E E E E E E E E E E E e e e e e e e e S 2.x c+v K (.` q ( t l v l l *.2.# p+w+x+y+[+m+> ",
"  > z+A+B+C+D+E+E+# 0.D.q 0 0 a e e e e E E E E E E E E E E E e e e e e e e e # # a c+F+k @.@.s t v v v =+>.i # # G+G+H+I+r+J+  ",
"    K+L+[+M+N+O+P+# # # `.b.A.( e e e e E E E E E E E E E E E e e e e e e e e # # 0 0 0 c+K K l v l P 9.3 # # # ,+Q+R+}+S+T+>   ",
"      U+V+W+9+X+Y+,+# # E E E E E E E E E E E # # # # # # # # E E E E e e e e # # Q Q Q Q v v v w.R o+# # # G+,+4+Z+`+ @V+U+    ",
"      > n..@I++@@@Y+G+# E E E E E E E E E E E # # # # # # # # E E E E e e e e # # v v v l =+=+R U.# # # # G+#@$@%@<+&@V+U+>     ",
"        *@T+6+e+=@-@;@>@E E E E E E E E E E E # # ,@,@A.A.A.A.E E E E e e e e # # K K K ..S S # # # # '@>@d.)@R+-+W+f+s+>       ",
"        > K+T+.@!@B+R+$@E E E E E E E E E E E # # S ^.~@,@,@,@E E E E e e e e # # S # # # # # # p+{@{@]@^@/@(@_@:@<@[@!         ",
"            e.}@|@1@2@3@E E E E E E E E # # # # # # i 4@4@4@4@E E E E e e e e # # # # # # S p+p+{@{@5@6@(+2@7@8@9@7.! .         ",
"              > 0@|@a@e+E E E E E E E E # # # # # # (.a.a.a.a.E E E E e e e e # # # p+p+p+{@b@{@5@Q+c@(+d@e@|@f@g@! . .         ",
"                <.h@i@j@E E E E E E E E # # # # # # # # # # # E E E E e e e e # # # '@k@{@{@l@m@X+C+n@h+o@i@[@! . . . .         ",
"                  > U+p@q@q@q@q@r@r@r@r@# # #+#+#+,+# # # # # q@q@q@q@r@r@r@r@# # ]@s@t@u@c@|+u+y+/+&@.@v@w@! . . . . .         ",
"                      *@q@q@q@q@r@r@r@r@# # x@x@y@z@,+A@A@A@A@q@q@q@q@r@r@r@r@# # ^@B@|+u+n@B+^+[+C@D@n.E@~.. . . . . .         ",
"                        q@q@q@q@r@r@r@r@# # -@|+F@c@G@H@I@I@I@q@q@q@q@r@r@r@r@# # H+J@!+^+[+6+f+m+n.K+> ~.. . . . . . .         ",
"                        q@q@q@q@r@r@r@r@# # I+/+}+K@-@L@~+~+~+q@q@q@q@r@r@r@r@# # ^+M@6+f+m+n.N@> >     . . . . . . . .         ",
"                        r@r@r@r@r@r@r@r@r@r@r@r+O@P@/+}+Q@Q@Q@r@r@r@r@r@r@r@r@r@r@r@p@n.K+> >                                   ",
"                        r@r@r@r@r@r@r@r@r@r@r@U+}@D@r+C@6+6+6+r@r@r@r@r@r@r@r@r@r@r@> >                                         ",
"                        r@r@r@r@r@r@r@r@r@r@r@# # K+U+J+J+J+J+r@r@r@r@r@r@r@r@r@r@r@# #                                         ",
"                        r@r@r@r@r@r@r@r@r@r@r@# #             r@r@r@r@r@r@r@r@r@r@r@# #                                         "};
