/* XPM */
static char * PLAYER_EXIT_LEFT_xpm[] = {
"64 64 357 2",
"  	c #392C32",
". 	c #4C3941",
"+ 	c #C63838",
"@ 	c #2467C1",
"# 	c #000000",
"$ 	c #DCDCDC",
"% 	c #3A2E33",
"& 	c #352F31",
"* 	c #302B2D",
"= 	c #373033",
"- 	c #3E3539",
"; 	c #4D3A42",
"> 	c #382B31",
", 	c #0F0E0F",
"' 	c #2A2E30",
") 	c #2B3132",
"! 	c #101010",
"~ 	c #141313",
"{ 	c #4B3840",
"] 	c #3A2E34",
"^ 	c #30272B",
"/ 	c #2F262A",
"( 	c #2D2428",
"_ 	c #0E0E0F",
": 	c #69787C",
"< 	c #6B7A7E",
"[ 	c #6C7B80",
"} 	c #667478",
"| 	c #342B2F",
"1 	c #171516",
"2 	c #1F2122",
"3 	c #1F2121",
"4 	c #1E2021",
"5 	c #181B1C",
"6 	c #67777A",
"7 	c #1B1E1F",
"8 	c #191718",
"9 	c #202224",
"0 	c #647275",
"a 	c #707F84",
"b 	c #212325",
"c 	c #212225",
"d 	c #110F10",
"e 	c #111010",
"f 	c #5E6A6E",
"g 	c #6D7C7E",
"h 	c #849195",
"i 	c #617073",
"j 	c #111011",
"k 	c #352C30",
"l 	c #121111",
"m 	c #0F0F0F",
"n 	c #161A1A",
"o 	c #5F6D71",
"p 	c #748287",
"q 	c #8C989B",
"r 	c #909C9F",
"s 	c #141717",
"t 	c #0F0D0F",
"u 	c #3C3438",
"v 	c #282326",
"w 	c #211D1F",
"x 	c #1E2324",
"y 	c #495153",
"z 	c #50595C",
"A 	c #728185",
"B 	c #889498",
"C 	c #0E1011",
"D 	c #576367",
"E 	c #3C3337",
"F 	c #1C191A",
"G 	c #373D3E",
"H 	c #4D5658",
"I 	c #131516",
"J 	c #0C0D0D",
"K 	c #393939",
"L 	c #353A3B",
"M 	c #343B3D",
"N 	c #272B2C",
"O 	c #5C6D70",
"P 	c #1D1F20",
"Q 	c #1C181A",
"R 	c #392D33",
"S 	c #7C8B8F",
"T 	c #828D90",
"U 	c #556062",
"V 	c #050606",
"W 	c #3C4B4E",
"X 	c #0B0C0C",
"Y 	c #232829",
"Z 	c #080A0A",
"` 	c #2F3536",
" .	c #070808",
"..	c #454D4F",
"+.	c #201D1E",
"@.	c #201D1F",
"#.	c #424A4C",
"$.	c #020303",
"%.	c #3F4647",
"&.	c #3B4345",
"*.	c #77868A",
"=.	c #313738",
"-.	c #292627",
";.	c #272224",
">.	c #151719",
",.	c #79888C",
"'.	c #5A6163",
").	c #090A0B",
"!.	c #121414",
"~.	c #191D1D",
"{.	c #332E30",
"].	c #4A3940",
"^.	c #2E2A2C",
"/.	c #161818",
"(.	c #626B6E",
"_.	c #727B7E",
":.	c #1B1E1E",
"<.	c #191919",
"[.	c #BDBDBD",
"}.	c #212525",
"|.	c #768281",
"1.	c #7F8A8D",
"2.	c #2C282A",
"3.	c #362C31",
"4.	c #3B3337",
"5.	c #0C0B0D",
"6.	c #646D70",
"7.	c #6F797B",
"8.	c #101212",
"9.	c #0C0B0C",
"0.	c #312C2E",
"a.	c #382C32",
"b.	c #4B3940",
"c.	c #49373F",
"d.	c #322C2F",
"e.	c #26292A",
"f.	c #282527",
"g.	c #4A383F",
"h.	c #3A3235",
"i.	c #1A1818",
"j.	c #222628",
"k.	c #151818",
"l.	c #121519",
"m.	c #0D0D0D",
"n.	c #2A2A2A",
"o.	c #33383A",
"p.	c #0D0E0F",
"q.	c #201E1E",
"r.	c #372C32",
"s.	c #47353D",
"t.	c #221F20",
"u.	c #31383A",
"v.	c #2C3334",
"w.	c #111111",
"x.	c #372B31",
"y.	c #403439",
"z.	c #3B3035",
"A.	c #181717",
"B.	c #0E0F0F",
"C.	c #394043",
"D.	c #1F1D1E",
"E.	c #35292E",
"F.	c #201E1F",
"G.	c #2D3335",
"H.	c #5B686C",
"I.	c #171616",
"J.	c #372F33",
"K.	c #1E1C1D",
"L.	c #455659",
"M.	c #2F3638",
"N.	c #757D80",
"O.	c #1D1D20",
"P.	c #687072",
"Q.	c #596669",
"R.	c #1B191A",
"S.	c #1C1B1C",
"T.	c #2D3333",
"U.	c #1A1819",
"V.	c #1B1A1B",
"W.	c #4582B1",
"X.	c #1C1105",
"Y.	c #3A3F40",
"Z.	c #1D2021",
"`.	c #212728",
" +	c #363F41",
".+	c #353D40",
"++	c #7D8788",
"@+	c #141617",
"#+	c #7D878A",
"$+	c #7B8488",
"%+	c #262D2E",
"&+	c #211F20",
"*+	c #151515",
"=+	c #1C1719",
"-+	c #201F20",
";+	c #171918",
">+	c #33393C",
",+	c #60686A",
"'+	c #191316",
")+	c #252123",
"!+	c #151314",
"~+	c #131313",
"{+	c #1E2B2A",
"]+	c #161516",
"^+	c #1C1619",
"/+	c #0B090A",
"(+	c #181718",
"_+	c #211E20",
":+	c #221A1E",
"<+	c #1E171B",
"[+	c #110D0F",
"}+	c #1D1C1D",
"|+	c #191818",
"1+	c #181315",
"2+	c #271E22",
"3+	c #1B1518",
"4+	c #0E0B0C",
"5+	c #1C1C1C",
"6+	c #101815",
"7+	c #121112",
"8+	c #1F1E1F",
"9+	c #2B2126",
"0+	c #2F252A",
"a+	c #251C20",
"b+	c #181316",
"c+	c #1F1E1E",
"d+	c #0A0A0B",
"e+	c #161F1E",
"f+	c #130F11",
"g+	c #21191D",
"h+	c #2F2429",
"i+	c #2D2327",
"j+	c #1F181B",
"k+	c #1D1C1C",
"l+	c #0A0A0A",
"m+	c #171215",
"n+	c #33272C",
"o+	c #32272C",
"p+	c #2C3B3C",
"q+	c #151616",
"r+	c #030303",
"s+	c #161315",
"t+	c #2D2328",
"u+	c #36292F",
"v+	c #2E2328",
"w+	c #120E10",
"x+	c #0E0D0D",
"y+	c #1B1B1B",
"z+	c #110E0F",
"A+	c #181215",
"B+	c #33282D",
"C+	c #2A2025",
"D+	c #1D1619",
"E+	c #100C0E",
"F+	c #141414",
"G+	c #0A0F0E",
"H+	c #120E0F",
"I+	c #20191C",
"J+	c #35292F",
"K+	c #372A30",
"L+	c #31262B",
"M+	c #1B1618",
"N+	c #131011",
"O+	c #090809",
"P+	c #1A1A1A",
"Q+	c #55666A",
"R+	c #0D0C0C",
"S+	c #0F0B0D",
"T+	c #291F24",
"U+	c #33272D",
"V+	c #362A2F",
"W+	c #30252A",
"X+	c #241C20",
"Y+	c #0B0809",
"Z+	c #191819",
"`+	c #100D0E",
" @	c #191416",
".@	c #261E22",
"+@	c #2C2227",
"@@	c #140F11",
"#@	c #0E0A0C",
"$@	c #090909",
"%@	c #060405",
"&@	c #0D0A0B",
"*@	c #251D21",
"=@	c #372B30",
"-@	c #1D1518",
";@	c #0F0C0D",
">@	c #131212",
",@	c #080808",
"'@	c #09090A",
")@	c #405154",
"!@	c #080607",
"~@	c #2D2227",
"{@	c #100F10",
"]@	c #070707",
"^@	c #090A09",
"/@	c #060505",
"(@	c #0F0B0C",
"_@	c #1A1316",
":@	c #261C20",
"<@	c #32262B",
"[@	c #3E2E35",
"}@	c #47353C",
"|@	c #34282E",
"1@	c #3C2D33",
"2@	c #2E2227",
"3@	c #1E171A",
"4@	c #110D0E",
"5@	c #090808",
"6@	c #253636",
"7@	c #2D2226",
"8@	c #382A30",
"9@	c #413138",
"0@	c #45343B",
"a@	c #2F2328",
"b@	c #161113",
"c@	c #22191D",
"d@	c #302429",
"e@	c #45333B",
"f@	c #49373E",
"g@	c #46353C",
"h@	c #3F2F36",
"i@	c #34272D",
"j@	c #291F23",
"k@	c #151012",
"l@	c #0D0B0C",
"m@	c #080707",
"n@	c #060606",
"o@	c #0A0B0B",
"p@	c #35282D",
"q@	c #32262C",
"r@	c #0A0809",
"s@	c #070506",
"t@	c #060506",
"u@	c #171717",
"v@	c #161616",
"w@	c #0B0F10",
"x@	c #423239",
"y@	c #48363D",
"z@	c #31252B",
"A@	c #2C2226",
"B@	c #090708",
"C@	c #040304",
"D@	c #050405",
"E@	c #0D0502",
"F@	c #909090",
"G@	c #121212",
"H@	c #4A373F",
"I@	c #0C090A",
"J@	c #020202",
"K@	c #030203",
"L@	c #050404",
"M@	c #261D21",
"N@	c #0C090B",
"O@	c #1B1517",
"P@	c #241C1F",
"                                . . . . . . . .           + + + @ @ @ @ @ @ @ . . . . .                                         ",
"                                . . . . . . . .           + + + @ @ @ @ @ @ @ . . . . .                                         ",
"                                . . . . . . . .           + + + @ @ @ @ @ @ @ # # . . .                                         ",
"                                . . . . . . . .           + + + @ @ @ @ @ @ @ # # . . .                                         ",
"                                                  $ $ $ $ $ $ $ $ $ $ $ @ @ @ # # . . .                                         ",
"                                                  $ $ $ $ $ $ $ $ $ $ $ @ @ @ # # . . .                                         ",
"                                        % & * * * $ $ $ $ $ $ $ $ $ $ $ @ @ @ # # = - ;                                         ",
"                                        > , ' ) ) ! ! ! ! + + + ! ! ! ! + + + # # ' ~ {                                         ",
"                                ] ^ ^ / ( _ : < [ ! ! ! ! + + + ! ! ! ! + + + # # } _ ( / ^ ^ ]                                 ",
"                            ] ] | 1 2 3 4 5 : < < ! ! ! ! + + + ! ! ! ! + + + # # 6 7 4 3 2 1 | ] ] ]                           ",
"                        ] ^ | 8 9 ) 0 } } } < < a ! ! ! ! + + + ! ! ! ! + + + # # [ } } } 0 ' b c 1 ^ ^ ]                       ",
"                        | d e 5 f 0 < < g g [ < h $ $ $ $ $ $ $ $ $ $ $ $ $ $ # # g < g < g 0 i f 5 j d /                       ",
"                % % k l m n o 0 < p q q q [ [ q r $ $ $ $ $ $ $ $ $ $ $ $ $ $ # # s < [ < [ [ < < 0 i ' t l u %                 ",
"                u v w x y z < A h B r r r [ [ r r $ $ $ $ $ $ $ $ $ $ $ $ $ $ # # C h h h h a [ g g < D y x w E                 ",
"              | F x y D [ < a B r r r G p [ h r H I J # # + + + + + + + + + + K K K K q L G f M N ) O [ < D P Q | %             ",
"          % R Q s y < < < [ S r T U z V 0 W q U 7 X Y # # + + + + + + + + + + K K K K z J Z ` C #  .D < < < ..I +./ ]           ",
". . . .   E @.x y < [ < A T r T #.V $.` %.V H V # Y &.H z + + + + + + + + + + K K K K # # # # # #  .D *.S A < y =.x -.u         ",
". . . . R ;.>.H : < [ < ,.r B '.).# # H ).# V $.!.#.~.V V + + + + + + + + + + K K K K # # # # # $.x 0 h r ,.< : 6 H >.{.>       ",
". . . ].^./.H < [ < [ i (._.'.).# # # V # # # ~.#.:.$.# # K K K <.<.<.<.[.[.[.K K K K K K K K  .}.|.r 1._.[ < [ < < #.2.3.>     ",
". . . 4.5.#.: [ [ < [ ..).X ).# # # # # # # $.6.Y $.# # $.K K K <.<.<.<.[.[.[.K K K K K K K K C 7.r r %.8.y < [ < < ..9.0.a.    ",
". b.c.d.#.: < < [ < ..V # # # # # # # # # # 6.X $.# # $.H K K K <.<.<.<.[.[.[.K K K K K K K K # # B e. .)...)  . .` : %.5.f.    ",
". g.h.i...[ < [ z j.k.# # # # # # # l.l.l.# }.$.# K K K K [.[.[.m.m.m.m.[.[.[.n.n.n.n.K K K K # # %.J X =.o.p.# # ) [ o ` q.r.  ",
"b.s.t.=.o < < &.s # # # # # # # # # l.l.l.# # # # K K K K [.[.[.m.m.m.m.[.[.[.n.n.n.n.K K K K # # C Z u.u.p.# $.# v.[ < #.w.d.x.",
"y.z.A...< < H n # # # # # # # # # B.l.l.l.# # # # K K K K [.[.[.m.m.m.m.[.[.[.n.n.n.n.K K K K # # $.' C.5 # # B.n y < < U ) D.E.",
"F.G.M D < z n # # # # # # # # # p.M l.l.l.# # =.C K K K K [.[.[.m.m.m.m.[.[.[.n.n.n.n.K K K K # # G.[ =.# # J Y z S *.[ [ H.I.J.",
"D.U o 6 < ) $.# # J 8.# # # l.l.l.l.l.l.l.l.l.l.l.l.l.l.l.l.l.l.l.l.l.l.l.l.l.n.n.n.n.K K K K K K K q G # ).7 U S T < [ [ f 7 K.",
"K.W L.O < ' # # # }.M.# # # l.l.l.l.l.l.l.l.l.l.l.l.l.l.l.l.l.l.l.l.l.l.l.l.l.n.n.n.n.K K K K K K K N.' # O.P.r T #.` [ [ < Q.R.",
"S.W L.O < ) # # # $.$.# # # l.l.l.l.l.l.l.l.l.l.l.l.l.l.l.l.l.l.l.l.l.l.l.l.l.n.n.n.n.K K K K K K K # # $.'.r r U V T.< [ < H.U.",
"V.W L.O < ) $.# # # # # $.7 z Z # # # # # W.W.W.W.X.X.X.X.X.X.X.X.X.X.X.W.W.W.n.n.n.n.n.n.n.n.K K K # # '.r r Y.X $.G.< [ < H.8 ",
"V.W L.O < Q.Z.# # # # # j...7 $.# # # # # W.W.W.W.X.X.X.X.X.X.X.X.X.X.X.W.W.W.n.n.n.n.n.n.n.n.K K K # # T r H I X j.H.< [ < H.A.",
"V.W L.O < &.J # # # # # p.n $.# # s H x $.W.W.W.W.X.X.X.X.X.X.X.X.X.X.X.W.W.W.n.n.n.n.n.n.n.n.K K K # # r z !.).}.Q.< [ [ < H.A.",
"V.W L.O H n # # # 5 `.# # # # # B. +G $.# W.W.W.W.X.X.X.X.X.X.X.X.X.X.X.W.W.W.n.n.n.n.n.n.n.n.K K K # # (.Z.p.# n  +H [ [ < H.A.",
"V.f < < ) # # # n  +j.# # # # p..+) $.# # K K K K X.X.X.X.[.[.[.<.<.<.<.W.W.W.K K K K n.n.n.n.K K K # # P # # # # # v.[ [ < H.A.",
"V.++r T v.# # @+u.M.# # # # # !.&.V # # # K K K K X.X.X.X.[.[.[.<.<.<.<.W.W.W.K K K K n.n.n.n.K K K # # # # # # # X v.< [ < H.A.",
"V.#+r r y x x %.=.$.# # C ~.$.# # # # $.x K K K K X.X.X.X.[.[.[.<.<.<.<.W.W.W.K K K K n.n.n.n.K K K # # # # # # ).8.%.< [ } #.A.",
"V.$+q r ,.< 6 %+$.# # $.` z V # # # # # o  .# # # K K K K [.[.[.<.<.<.<.[.[.[.X.X.X.X.K K K K K K K # # # # #  .Z G.< [ [ Q.$.A.",
"V.W L.A r *.' # # # $.` %.$.# # # # # # $.# # # # K K K K [.[.[.<.<.<.<.[.[.[.X.X.X.X.K K K K K K K # # # # # ).M.< [ [ [ H. .&+",
"V.#.y |.r ,.' # # $.Y &.!.# # # $.# # # # # # V &.K K K K [.[.[.<.<.<.<.[.[.[.X.X.X.X.K K K K K K K # # # # $. +H.< [ *.S Q.*+=+",
"-+;+n %.,.q >+V V Y &.8.# # # k.%.$.# # # # V z ) K K K K [.[.[.<.<.<.<.[.[.[.X.X.X.X.K K K K K K K # # # $.G 0 < < *.q ,+n *+'+",
")+!+~+{+< r Q.&.&.C.x # # # C Y.' $.# # # # C.>+C # # # # [.[.[.<.<.<.<.[.[.[.n.n.n.n.K K K K # # # # # # N Q.[ [ p B r U $.]+^+",
"'+/+(+C ` N.B A [ #.# # # C C.%+$.# # # C.%.>+$.# # $.# # [.[.[.<.<.<.<.[.[.[.n.n.n.n.K K K K # # # # # %+Q.: [ A B r 7.N ~+_+:+",
"<+[+}+w.)...T T A #.# # C ) &.V # # # }.} H V # # # ~.#.k.[.[.[.<.<.<.<.[.[.[.n.n.n.n.K K K K # # # # k.z < : A T r 1.&.# |+1+2+",
"2+3+4+5+6+6+..T B U j.j.#.U V # # Z `.6 H V # # # ~.%.k.# [.[.[.<.<.<.<.[.[.[.n.n.n.n.K K K K # # $.Z.z < [ A B r 1.&.# 7+8+3+9+",
"0+a+b+c+d+e+6+'.q h g < < U V # $.x 6 0 Z # # $. .H Z.# # K K K K K K K K K K n.n.n.n.K K K K # # p.D g < [ h r q z $.# 5+f+g+h+",
"E.i+j+f+k+l+e+%+H q T [ [ U V $.x 6 0  .# # # X H x # # # K K K K K K K K K K n.n.n.n.K K K K # # D [ [ [ h r q z # # d+c+m+2+n+",
"> o+2+1+d ~+X x p+z [ < [ U ).n D D Z.$.# # V z ' Z # # V K K K K K K K K K K n.n.n.n.K K K K # # 6 g T B r q ..q+# r+5+s+j+t+u+",
"  u+v+g+w+x+~+e+e+8.M.Q.6 0 D H.< U Z # # V U 7  .K K K K K K K n.n.n.n.n.n.n.n.n.n.n.K K K K # # h q r q q ..J # r+y+z+A+2+o+> ",
"  > B+C+D+E+F+G+G+# C %+y < < [ < i #.V $.%.: V # K K K K K K K n.n.n.n.n.n.n.n.n.n.n.K K K K # # r r r ,+%.n # # m.m.H+I+t+J+  ",
"    K+L+2+M+N+O+P+# # # @+u.L.: } Q+Q+#.#.6 : V # K K K K K K K n.n.n.n.n.n.n.n.n.n.n.K K K K # # q H &.5 # # # ~+R+S+3+T+U+>   ",
"      V+W+X+b+Y+Z+~+# # #  .{+y z W L.O o O O ' N K K K K K K K n.n.n.n.n.n.n.n.n.n.n.K K K K # # '.q+# # # m.~+7+`+ @.@W+V+    ",
"      > E.+@I+@@#@Z+m.# # # # V e+{+W W p+L.L.O O K K K K n.n.n.# # # # # # # n.n.n.n.n.n.n.n.n.n.n.# # # m.$@%@&@1+*@W+V+>     ",
"        =@U+9+g+-@;@>@,@'@# # # # Z {+{+V )@)@)@)@K K K K n.n.n.# # # # # # # n.n.n.n.n.n.n.n.n.n.n.# '@,@w.!@S+'+X+h+u+>       ",
"        > K+U++@~@D+S+%@{@]@^@r+# # # # # {+{+{+X K K K K n.n.n.# # )@U T T T n.n.n.n.n.n.n.n.n.n.n.# # /@(@_@:@<@[@}@{         ",
"            x.|@1@2@3@4@x+5@]@^@r+# # # # Z Z Z $.K K K K n.n.n.# # 6@%+Z.P Z.Z.7 # # n.n.n.n.n.n.n.# # [+3@7@8@9@s.{ .         ",
"              > 0@1@a@g+b@&@x+5@]@]@r+r+r+# # # # K K K K n.n.n.# # Z Z $.# # # # # # n.n.n.n.n.n.n.# # c@d@1@e@f@{ . .         ",
"                g.g@h@i@j@3@k@&@l@m@]@n@o@# # # # K K K K n.n.n.# # # Z 6+# # # # # '@n.n.n.n.n.n.n.# # p@h@}@{ . . . .         ",
"                  > V+q@+@*@3@b@E+r@s@t@u@v@*+*+*+K K K K n.n.n.# # # V w@~+*+*+*+v@u@n.n.n.n.n.n.n.# # x@y@{ . . . . .         ",
"                      =@E.z@A@a+3@m+w+4+B@/@C@C@D@E@E@E@E@F@F@F@# # G@G@~+{@D@C@C@/@B@E@E@E@E@F@F@F@# # H@b.. . . . . .         ",
"                        > K+|@W+A@2+:+^+b@H+;@4+I@E@E@E@E@F@F@F@# # J@K@L@!@I@4+;@H+b@E@E@E@E@F@F@F@# # b.. . . . . . .         ",
"                            > K+E.o+h+9+M@:+I+<+3+E@E@E@E@F@F@F@# # /+N@;@k@3+<+I+:+M@E@E@E@E@F@F@F@# # . . . . . . . .         ",
"                                > > K+E.q@E@E@E@E@E@E@E@E@E@E@E@# # O@3+<+P@C+E@E@E@E@E@E@E@E@E@E@E@# #                         ",
"                                      > > E@E@E@E@E@E@E@E@E@E@E@# # 9+A@t+z@|@E@E@E@E@E@E@E@E@E@E@E@# #                         ",
"                                          E@E@E@E@E@E@E@E@E@E@E@# # J+J+V+K+> E@E@E@E@E@E@E@E@E@E@E@# #                         ",
"                                          E@E@E@E@E@E@E@E@E@E@E@# #           E@E@E@E@E@E@E@E@E@E@E@# #                         "};
