/* XPM */
static char * FLOOR_xpm[] = {
"64 64 4 1",
" 	c #392C32",
".	c #563935",
"+	c #66423E",
"@	c #3F2D2B",
"    ......................            ......................    ",
"    ......................            ......................    ",
"    ......................            ......................    ",
"    ......................            ......................    ",
"..........................++++    ..........................++++",
"..........................++++    ..........................++++",
"..........................++++    ..........................++++",
"..........................++++    ..........................++++",
"..........................++++    ..........................++++",
"..........................++++    ..........................++++",
"..........................++++    ..........................++++",
"..........................++++    ..........................++++",
"..........................++++    ..........................++++",
"..........................++++    ..........................++++",
"..........................++++    ..........................++++",
"..........................++++    ..........................++++",
"..........................++++    ..........................++++",
"..........................++++    ..........................++++",
"..........................++++    ..........................++++",
"..........................++++    ..........................++++",
".....................+++++++++    .....................+++++++++",
".....................+++++++++    .....................+++++++++",
".....................+++++++++    .....................+++++++++",
".....................+++++++++    .....................+++++++++",
"@@@@++++++++++++++++++++++@@@@    @@@@++++++++++++++++++++++@@@@",
"@@@@++++++++++++++++++++++@@@@    @@@@++++++++++++++++++++++@@@@",
"@@@@++++++++++++++++++++++@@@@    @@@@++++++++++++++++++++++@@@@",
"@@@@++++++++++++++++++++++@@@@    @@@@++++++++++++++++++++++@@@@",
"    @@@@@@@@@@@@@@@@@@@@@@            @@@@@@@@@@@@@@@@@@@@@@    ",
"    @@@@@@@@@@@@@@@@@@@@@@            @@@@@@@@@@@@@@@@@@@@@@    ",
"    @@@@@@@@@@@@@@@@@@@@@@            @@@@@@@@@@@@@@@@@@@@@@    ",
"    @@@@@@@@@@@@@@@@@@@@@@            @@@@@@@@@@@@@@@@@@@@@@    ",
"    ......................            ......................    ",
"    ......................            ......................    ",
"    ......................            ......................    ",
"    ......................            ......................    ",
"..........................++++    ..........................++++",
"..........................++++    ..........................++++",
"..........................++++    ..........................++++",
"..........................++++    ..........................++++",
"..........................++++    ..........................++++",
"..........................++++    ..........................++++",
"..........................++++    ..........................++++",
"..........................++++    ..........................++++",
"..........................++++    ..........................++++",
"..........................++++    ..........................++++",
"..........................++++    ..........................++++",
"..........................++++    ..........................++++",
"..........................++++    ..........................++++",
"..........................++++    ..........................++++",
"..........................++++    ..........................++++",
"..........................++++    ..........................++++",
".....................+++++++++    .....................+++++++++",
".....................+++++++++    .....................+++++++++",
".....................+++++++++    .....................+++++++++",
".....................+++++++++    .....................+++++++++",
"@@@@++++++++++++++++++++++@@@@    @@@@++++++++++++++++++++++@@@@",
"@@@@++++++++++++++++++++++@@@@    @@@@++++++++++++++++++++++@@@@",
"@@@@++++++++++++++++++++++@@@@    @@@@++++++++++++++++++++++@@@@",
"@@@@++++++++++++++++++++++@@@@    @@@@++++++++++++++++++++++@@@@",
"    @@@@@@@@@@@@@@@@@@@@@@            @@@@@@@@@@@@@@@@@@@@@@    ",
"    @@@@@@@@@@@@@@@@@@@@@@            @@@@@@@@@@@@@@@@@@@@@@    ",
"    @@@@@@@@@@@@@@@@@@@@@@            @@@@@@@@@@@@@@@@@@@@@@    ",
"    @@@@@@@@@@@@@@@@@@@@@@            @@@@@@@@@@@@@@@@@@@@@@    "};
