/* XPM */
static char * HUDBG_RIGHT_xpm[] = {
"64 64 2 1",
" 	c #262626",
".	c #FFFFFF",
"                                                  ..............",
"                                                  ..............",
"                                                  ..............",
"                                                  ..............",
"                                                            ....",
"                                                            ....",
"                                                            ....",
"                                                            ....",
"                                                            ....",
"                                                            ....",
"                                                            ....",
"                                                            ....",
"                                                            ....",
"                                                            ....",
"                                                                ",
"                                                                ",
"                                                                ",
"                                                                ",
"                                                                ",
"                                                                ",
"                                                                ",
"                                                                ",
"                                                                ",
"                                                                ",
"                                                                ",
"                                                                ",
"                                                                ",
"                                                                ",
"                                                                ",
"                                                                ",
"                                                                ",
"                                                                ",
"                                                                ",
"                                                                ",
"                                                                ",
"                                                                ",
"                                                                ",
"                                                                ",
"                                                                ",
"                                                                ",
"                                                                ",
"                                                                ",
"                                                                ",
"                                                                ",
"                                                                ",
"                                                                ",
"                                                                ",
"                                                                ",
"                                                                ",
"                                                                ",
"                                                            ....",
"                                                            ....",
"                                                            ....",
"                                                            ....",
"                                                            ....",
"                                                            ....",
"                                                            ....",
"                                                            ....",
"                                                            ....",
"                                                            ....",
"                                                  ..............",
"                                                  ..............",
"                                                  ..............",
"                                                  .............."};
