/* XPM */
static char * HUDBG_LEFT_xpm[] = {
"64 64 2 1",
" 	c #FFFFFF",
".	c #262626",
"              ..................................................",
"              ..................................................",
"              ..................................................",
"              ..................................................",
"    ............................................................",
"    ............................................................",
"    ............................................................",
"    ............................................................",
"    ............................................................",
"    ............................................................",
"    ............................................................",
"    ............................................................",
"    ............................................................",
"    ............................................................",
"................................................................",
"................................................................",
"................................................................",
"................................................................",
"................................................................",
"................................................................",
"................................................................",
"................................................................",
"................................................................",
"................................................................",
"................................................................",
"................................................................",
"................................................................",
"................................................................",
"................................................................",
"................................................................",
"................................................................",
"................................................................",
"................................................................",
"................................................................",
"................................................................",
"................................................................",
"................................................................",
"................................................................",
"................................................................",
"................................................................",
"................................................................",
"................................................................",
"................................................................",
"................................................................",
"................................................................",
"................................................................",
"................................................................",
"................................................................",
"................................................................",
"................................................................",
"    ............................................................",
"    ............................................................",
"    ............................................................",
"    ............................................................",
"    ............................................................",
"    ............................................................",
"    ............................................................",
"    ............................................................",
"    ............................................................",
"    ............................................................",
"              ..................................................",
"              ..................................................",
"              ..................................................",
"              .................................................."};
