/* XPM */
static char * PLAYER_RIGHT_xpm[] = {
"64 64 19 1",
" 	c #392C32",
".	c #563935",
"+	c #2467C1",
"@	c #C63838",
"#	c #000000",
"$	c #DCDCDC",
"%	c #66423E",
"&	c #101010",
"*	c #393939",
"=	c #BDBDBD",
"-	c #191919",
";	c #2A2A2A",
">	c #0D0D0D",
",	c #121519",
"'	c #3F2D2B",
")	c #4582B1",
"!	c #1C1105",
"~	c #909090",
"{	c #0D0502",
"    .....................+++++++@@@   ......................    ",
"    .....................+++++++@@@   ......................    ",
"    .....................+++++++@@@## ......................    ",
"    .....................+++++++@@@## ......................    ",
".........................+++$$$$$$$$$$$.....................%%%%",
".........................+++$$$$$$$$$$$.....................%%%%",
".........................+++$$$$$$$$$$$##...................%%%%",
".........................@@@&&&&@@@&&&&##...................%%%%",
".........................@@@&&&&@@@&&&&##...................%%%%",
".........................@@@&&&&@@@&&&&##...................%%%%",
".........................@@@&&&&@@@&&&&##...................%%%%",
".........................$$$$$$$$$$$$$$##...................%%%%",
".........................$$$$$$$$$$$$$$##...................%%%%",
".........................$$$$$$$$$$$$$$##...................%%%%",
".....................****@@@@@@@@@@######...................%%%%",
".....................****@@@@@@@@@@######...................%%%%",
".....................****@@@@@@@@@@##.......................%%%%",
".....................****@@@@@@@@@@##.......................%%%%",
".................********===----***##.......................%%%%",
".................********===----***##.......................%%%%",
".................********===----***##..................%%%%%%%%%",
".................****;;;;===>>>>===****....,,,.........%%%%%%%%%",
".................****;;;;===>>>>===****....,,,.........%%%%%%%%%",
".................****;;;;===>>>>===****##..,,,##.......%%%%%%%%%",
"''''%%%%%%%%%%%%%****;;;;===>>>>===****##%%,,,##%%%%%%%%%%%%''''",
"''''%%%%%%%%%%*******;;;;,,,,,,,,,,,,,,,,,,,,,,,,,%%%%%%%%%%''''",
"''''%%%%%%%%%%*******;;;;,,,,,,,,,,,,,,,,,,,,,,,,,%%%%%%%%%%''''",
"''''%%%%%%%%%%*******;;;;,,,,,,,,,,,,,,,,,,,,,,,,,##%%%%%%%%''''",
"    ''''''''''***;;;;;;;;)))!!!!!!!!!!!))))#########''''''''    ",
"    ''''''''''***;;;;;;;;)))!!!!!!!!!!!))))#########''''''''    ",
"    ''''''''''***;;;;;;;;)))!!!!!!!!!!!))))##'''''''''''''''    ",
"    ''''''''''***;;;;;;;;)))!!!!!!!!!!!))))##'''''''''''''''    ",
"    ..........***;;;;****)))----===!!!!****##...............    ",
"    ..........***;;;;****)))----===!!!!****##...............    ",
"    ..........***;;;;****)))----===!!!!****##...............    ",
"    ..........*******!!!!===----===****######...............    ",
"..............*******!!!!===----===****######...............%%%%",
"..............*******!!!!===----===****##...................%%%%",
"..............*******!!!!===----===****##...................%%%%",
"................#****;;;;===----===######...................%%%%",
"................#****;;;;===----===######...................%%%%",
".................****;;;;===----===##.......................%%%%",
".................****;;;;===----===##.......................%%%%",
".................****;;;;**********##.......................%%%%",
".................****;;;;**********##.......................%%%%",
".................****;;;;**********##.......................%%%%",
".................****;;;;;;;;;;;*******.....................%%%%",
".................****;;;;;;;;;;;*******.....................%%%%",
".................****;;;;;;;;;;;*******##...................%%%%",
".................****;;;;;;;;;;;*******##...................%%%%",
"..............;;;;;;;;;;;#######;;;****##...................%%%%",
"..............;;;;;;;;;;;#######;;;****##...................%%%%",
"..............;;;;;;;;;;;##%%%  ;;;****##..............%%%%%%%%%",
"..............;;;;;;;######%%%  ;;;****##..............%%%%%%%%%",
"..............;;;;;;;######%%%  ;;;****##..............%%%%%%%%%",
"..............;;;;;;;##%%%%%%%  ;;;****##..............%%%%%%%%%",
"''''%%%%%%%%%%;;;;;;;##%%%''''  ;;;****##%%%%%%%%%%%%%%%%%%%''''",
"''''%%%%%%%%%%~~~{{{{##%%%''''  ~~~{{{{##%%%%%%%%%%%%%%%%%%%''''",
"''''%%%%%%%%%%~~~{{{{##%%%''''  ~~~{{{{##%%%%%%%%%%%%%%%%%%%''''",
"''''%%%%%%%%%%~~~{{{{##%%%''''  ~~~{{{{##%%%%%%%%%%%%%%%%%%%''''",
"    ''''''''''{{{{{{{{{{{'      {{{{{{{{{{{'''''''''''''''''    ",
"    ''''''''''{{{{{{{{{{{'      {{{{{{{{{{{'''''''''''''''''    ",
"    ''''''''''{{{{{{{{{{{##     {{{{{{{{{{{##'''''''''''''''    ",
"    ''''''''''{{{{{{{{{{{##     {{{{{{{{{{{##'''''''''''''''    "};
