/* XPM */
static char * PLAYER_DEAD_xpm[] = {
"64 64 23 1",
" 	c #392C32",
".	c #563935",
"+	c #000000",
"@	c #212121",
"#	c #66423E",
"$	c #616161",
"%	c #7F0000",
"&	c #BF0000",
"*	c #FF0000",
"=	c #9E9E9E",
"-	c #3F2D2B",
";	c #2A2A2A",
">	c #DCDCDC",
",	c #101010",
"'	c #393939",
")	c #BDBDBD",
"!	c #C63838",
"~	c #0D0502",
"{	c #0D0D0D",
"]	c #2467C1",
"^	c #909090",
"/	c #191919",
"(	c #4582B1",
"    ......................            ......................    ",
"    .....................+++++++++    ......................    ",
"    .....................+++++++++    ......................    ",
"    .................+++++@@@@@@@@+++ ......................    ",
".....................+++++@@@@@@@@+++.......................####",
"...................++++@@@@@@@$$$$@@@++.....................####",
"...................++@@@@@@@@@$$$$$@@++.....................####",
"...................++@@@@@@@@@$$$$$@@++.....................####",
"..................+++@@@@@@@@@@@@@$$$@@++...................####",
"..................+++@@@@@@@@@@@@@$$$@@++...................####",
"..................+++@@++@@@@@@@@@@@@@@++...................####",
"..................+++@@++@@@@@@@@@@@@@@++...................####",
"..................+++@@++++%%@@@@@@%%++++...................####",
"..................+++@@++++&&++++++&&++++...................####",
"..................+++@@+++&**&++++&**&+++...................####",
"..................+++@@++&****&++&****&++...................####",
"..................+++@@%&******&&******&%...................####",
"............++++@@+++@@%&******&&******&%...................####",
"............++++@@+++@@++&****&++&****&++...................####",
"...........+++++++@++@@@@+&**&++++&**&@+++..................####",
"...........+++++++@++@@@@++&&++++++&&@@+++.............#########",
".........+++++++++@++++@@@@%%@@@@@@%%@@+++++...........#########",
".......+++++++++++@++++@@@@@@@==$$@@@++@@+++++.........#########",
".......+++++++++++@++++@@@@@@@==$$@@@++@@+++++.........#########",
"----#+++++++++++++@++++++@@@@@$$==@@@++@@+++++++############----",
"----#+++++++++++++@++++++@@@@@$$==@@@++@@+++++++############----",
"----++++++++++++@@@+++++++@@@@@@@@@++@@@@++++++++###########----",
"----++++++++++++@@@+++++++@@@@@@@@@++@@@@++++++++###########----",
"  ++@@@@@+++++++@@@+++++++++++@@+++++@@+++++@@@@@++---------    ",
"++@@@@@@@@@+----++@++++++++++++++++++@@+++@@@@@@@@@++-------    ",
"++@@@@@@@@@+----++@++++++++++++++++++@@+++@@@@@@@@@++-------    ",
"++@@@@@@@@@+----++@@@++++++++++++++++@@+++@@@@@@@@@++-------    ",
"++@@@@@@@@@+....++@@@++++++++++++++++@@+++@@@@@@@@@++.......    ",
"++$$$$$$$$$+......+@@++++++++++++++@@@@+++@@@@@@@@@++.......    ",
"++$$$$$$$$$+......+@@++++++++++++++@@@@+++@@@@@@@@@++.......    ",
"++$$@@@$$$$+......+++++++++++++++++@@++;;+@@@@@@@@@++>,,,,>>>   ",
"++$$@@@$$$$+......+++++++++++++++++@@++;;+@@@@@@@@@++>,,,,>>>###",
"++$$@$$$$++.....++@@@++++++++++++++++++;;;++@@@@@++++>,,,,>>>###",
"++$$$++++++...++@@@@@@@@@@++++++++@@@@@++;+++++++@@++>,,,,>>>###",
"++$$$++++++'''++@@@@@@@@@@++++++++@@@@@++)+++++++@@++>!!!!>>>!!!",
".~$$@@@@@++'++@@@@@@@@@@@@@@@@@@@@@@@@@@@)++@@@@@++>>>!!!!>>>!!!",
".~$$@@@@@++'++@@@@@@@@@@@@@@@@@@@@@@@@@@@)++@@@@@++>>>!!!!>>>!!!",
".~$$+++++;;+++++++++++++++++++++++++++++++{{+++++++>>>,,,,>>>]]]",
".~$$+++++;;+++++++++++++++++++++++++++++++{{+++++++>>>,,,,>>>]]]",
".~$$~^^^;++++++++++++++/////////++++++++++++///!+++>>>,,,,>>>]]]",
".~$$~^^++++++++++++++'//////////++++++++++++++/!+@@++@@,,,>>>]]]",
".~$$~..++++++++++++++'))))))))))++++++++++++++)!+@@++@@!!!]]]]]]",
".~$$$$$$$$$++++++++++'))))))))))++++++++++++++)!@++@@++!!!]]]]]]",
".~$$$$$$$$$++++++++++'))))))))))++++++++++++++)!@++@@++!!!]]]]]]",
"$$$$$$$$$$$++++++++++;;;;;;;;;;;++++++++++++++''+@@.........####",
"$$$$$$$$$$$++++++++++;;;;;;;;;;;++++++++++++++''+@@.........####",
".~$$$$$~;++++++++++++;;;;;;;;;;;++++++++++++''''@++.........####",
".~$$$$$~;++++++++++++;;;;;;;;;;;++++++++++++''''@++....#########",
".~$$$^^^;++++++++++++(''''''''''++++++++++++'''.+@@....#########",
".~$$$^^++++++++++++++(''''''''''++++++++++++++'.@++....#########",
".~$$$^^++++++++++++++(''''''''''++++++++++++++'.@++....#########",
"--$$$++++++++++++++(((''''''''''''++++++++++++++############----",
"--$$$++++++++++++++(((''''''''''''++++++++++++++############----",
"$$$$$$$$$##########(((''''''''''''''''''####################----",
"$$$$$$$$$##########(((''''''''''''''''''####################----",
"  $$$$$$$$$---------------            ----------------------    ",
"  $$$----$$---------------            ----------------------    ",
"  $$$----$$---------------            ----------------------    ",
"  $$$---------------------            ----------------------    "};
